NotoSerifHebrew-Light.ufo
<glyph name="etnahtaleft-hb" format="2">
  <unicode hex="0591"/>
  <note>
uni0591
</note>
  <anchor x="104" y="0" name="_bottomleft"/>
  <outline>
    <contour>
      <point x="92" y="-87" type="line"/>
      <point x="92" y="-122" type="line"/>
      <point x="75" y="-126"/>
      <point x="63" y="-134"/>
      <point x="58" y="-146" type="curve" smooth="yes"/>
      <point x="53" y="-158"/>
      <point x="50" y="-168"/>
      <point x="50" y="-183" type="curve" smooth="yes"/>
      <point x="50" y="-191"/>
      <point x="51" y="-209"/>
      <point x="52" y="-217" type="curve"/>
      <point x="78" y="-215" type="line"/>
      <point x="76" y="-206"/>
      <point x="76" y="-189"/>
      <point x="76" y="-183" type="curve" smooth="yes"/>
      <point x="76" y="-158"/>
      <point x="86" y="-146"/>
      <point x="104" y="-146" type="curve" smooth="yes"/>
      <point x="123" y="-146"/>
      <point x="133" y="-158"/>
      <point x="133" y="-184" type="curve" smooth="yes"/>
      <point x="133" y="-191"/>
      <point x="133" y="-207"/>
      <point x="131" y="-217" type="curve"/>
      <point x="157" y="-215" type="line"/>
      <point x="158" y="-207"/>
      <point x="159" y="-188"/>
      <point x="159" y="-180" type="curve" smooth="yes"/>
      <point x="159" y="-167"/>
      <point x="159" y="-157"/>
      <point x="152" y="-146" type="curve" smooth="yes"/>
      <point x="145" y="-135"/>
      <point x="134" y="-126"/>
      <point x="118" y="-122" type="curve"/>
      <point x="118" y="-85" type="line"/>
    </contour>
  </outline>
</glyph>
<glyph name="zaqefgadol-hb" format="2">
  <unicode hex="0595"/>
  <note>
uni0595
</note>
  <anchor x="97" y="536" name="_top"/>
  <outline>
    <contour>
      <point x="50" y="660" type="line"/>
      <point x="75" y="663" type="line"/>
      <point x="75" y="805" type="line"/>
      <point x="50" y="802" type="line"/>
    </contour>
    <contour>
      <point x="131" y="660" type="curve" smooth="yes"/>
      <point x="151" y="660"/>
      <point x="154" y="673"/>
      <point x="154" y="688" type="curve" smooth="yes"/>
      <point x="154" y="703"/>
      <point x="151" y="716"/>
      <point x="131" y="716" type="curve" smooth="yes"/>
      <point x="114" y="716"/>
      <point x="110" y="703"/>
      <point x="110" y="688" type="curve" smooth="yes"/>
      <point x="110" y="673"/>
      <point x="114" y="660"/>
    </contour>
    <contour>
      <point x="131" y="749" type="curve" smooth="yes"/>
      <point x="151" y="749"/>
      <point x="154" y="762"/>
      <point x="154" y="777" type="curve" smooth="yes"/>
      <point x="154" y="792"/>
      <point x="151" y="805"/>
      <point x="131" y="805" type="curve" smooth="yes"/>
      <point x="114" y="805"/>
      <point x="110" y="792"/>
      <point x="110" y="777" type="curve" smooth="yes"/>
      <point x="110" y="762"/>
      <point x="114" y="749"/>
    </contour>
  </outline>
</glyph>
<glyph name="pashta-hb" format="2">
  <unicode hex="0599"/>
  <note>
uni0599
</note>
  <anchor x="113" y="536" name="_topleft"/>
  <outline>
    <contour>
      <point x="50" y="772" type="line"/>
      <point x="65" y="767"/>
      <point x="76" y="761"/>
      <point x="80" y="753" type="curve" smooth="yes"/>
      <point x="87" y="740"/>
      <point x="86" y="689"/>
      <point x="85" y="667" type="curve"/>
      <point x="111" y="669" type="line"/>
      <point x="114" y="706"/>
      <point x="114" y="753"/>
      <point x="102" y="769" type="curve" smooth="yes"/>
      <point x="92" y="783"/>
      <point x="76" y="794"/>
      <point x="52" y="800" type="curve"/>
    </contour>
  </outline>
</glyph>
<glyph name="yetiv-hb" format="2">
  <unicode hex="059A"/>
  <note>
uni059A
</note>
  <anchor x="145" y="0" name="_bottomleft"/>
  <outline>
    <contour>
      <point x="114" y="-197" type="line"/>
      <point x="137" y="-182" type="line"/>
      <point x="87" y="-133" type="line"/>
      <point x="137" y="-84" type="line"/>
      <point x="114" y="-70" type="line"/>
      <point x="50" y="-133" type="line"/>
    </contour>
  </outline>
</glyph>
<glyph name="gershayimaccent-hb" format="2">
  <unicode hex="059E"/>
  <note>
uni059E
</note>
  <anchor x="96" y="536" name="_top"/>
  <outline>
    <contour>
      <point x="113" y="772" type="curve"/>
      <point x="111" y="800" type="line"/>
      <point x="87" y="794"/>
      <point x="70" y="782"/>
      <point x="60" y="769" type="curve" smooth="yes"/>
      <point x="48" y="753"/>
      <point x="48" y="706"/>
      <point x="51" y="669" type="curve"/>
      <point x="78" y="667" type="line"/>
      <point x="77" y="689"/>
      <point x="76" y="740"/>
      <point x="83" y="753" type="curve" smooth="yes"/>
      <point x="87" y="761"/>
      <point x="98" y="767"/>
    </contour>
    <contour>
      <point x="185" y="772" type="curve"/>
      <point x="183" y="800" type="line"/>
      <point x="159" y="794"/>
      <point x="143" y="783"/>
      <point x="133" y="769" type="curve" smooth="yes"/>
      <point x="121" y="753"/>
      <point x="121" y="706"/>
      <point x="123" y="669" type="curve"/>
      <point x="151" y="667" type="line"/>
      <point x="149" y="689"/>
      <point x="148" y="740"/>
      <point x="155" y="753" type="curve" smooth="yes"/>
      <point x="159" y="761"/>
      <point x="170" y="767"/>
    </contour>
  </outline>
</glyph>
<glyph name="qarneypara-hb" format="2">
  <unicode hex="059F"/>
  <note>
uni059F
</note>
  <anchor x="174" y="536" name="_top"/>
  <outline>
    <contour>
      <point x="201" y="670" type="line"/>
      <point x="222" y="691" type="line"/>
      <point x="230" y="687"/>
      <point x="237" y="685"/>
      <point x="247" y="685" type="curve" smooth="yes"/>
      <point x="276" y="685"/>
      <point x="298" y="708"/>
      <point x="298" y="736" type="curve" smooth="yes"/>
      <point x="298" y="765"/>
      <point x="275" y="787"/>
      <point x="247" y="787" type="curve" smooth="yes"/>
      <point x="218" y="787"/>
      <point x="195" y="765"/>
      <point x="195" y="736" type="curve" smooth="yes"/>
      <point x="195" y="727"/>
      <point x="198" y="718"/>
      <point x="202" y="711" type="curve"/>
      <point x="181" y="690" type="line"/>
    </contour>
    <contour>
      <point x="147" y="670" type="line"/>
      <point x="167" y="690" type="line"/>
      <point x="146" y="711" type="line"/>
      <point x="150" y="718"/>
      <point x="153" y="727"/>
      <point x="153" y="736" type="curve" smooth="yes"/>
      <point x="153" y="765"/>
      <point x="130" y="787"/>
      <point x="101" y="787" type="curve" smooth="yes"/>
      <point x="73" y="787"/>
      <point x="50" y="765"/>
      <point x="50" y="736" type="curve" smooth="yes"/>
      <point x="50" y="708"/>
      <point x="72" y="685"/>
      <point x="101" y="685" type="curve" smooth="yes"/>
      <point x="111" y="685"/>
      <point x="118" y="687"/>
      <point x="126" y="691" type="curve"/>
    </contour>
    <contour>
      <point x="102" y="711" type="curve" smooth="yes"/>
      <point x="88" y="711"/>
      <point x="75" y="723"/>
      <point x="75" y="736" type="curve" smooth="yes"/>
      <point x="75" y="750"/>
      <point x="88" y="762"/>
      <point x="102" y="762" type="curve" smooth="yes"/>
      <point x="115" y="762"/>
      <point x="127" y="750"/>
      <point x="127" y="736" type="curve" smooth="yes"/>
      <point x="127" y="722"/>
      <point x="115" y="711"/>
    </contour>
    <contour>
      <point x="246" y="711" type="curve" smooth="yes"/>
      <point x="233" y="711"/>
      <point x="221" y="722"/>
      <point x="221" y="736" type="curve"/>
      <point x="221" y="750"/>
      <point x="233" y="762"/>
      <point x="246" y="762" type="curve" smooth="yes"/>
      <point x="260" y="762"/>
      <point x="273" y="750"/>
      <point x="273" y="736" type="curve" smooth="yes"/>
      <point x="273" y="723"/>
      <point x="260" y="711"/>
    </contour>
  </outline>
</glyph>
<glyph name="munahleft-hb" format="2">
  <unicode hex="05A3"/>
  <note>
uni05A3
</note>
  <anchor x="178" y="0" name="_bottomleft"/>
  <outline>
    <contour>
      <point x="50" y="-171" type="line"/>
      <point x="143" y="-171" type="line"/>
      <point x="143" y="-81" type="line"/>
      <point x="116" y="-83" type="line"/>
      <point x="116" y="-145" type="line"/>
      <point x="51" y="-145" type="line"/>
    </contour>
  </outline>
</glyph>
<glyph name="mahapakhleft-hb" format="2">
  <unicode hex="05A4"/>
  <note>
uni05A4
</note>
  <anchor x="146" y="0" name="_bottomleft"/>
  <outline>
    <contour>
      <point x="114" y="-197" type="line"/>
      <point x="137" y="-182" type="line"/>
      <point x="87" y="-133" type="line"/>
      <point x="137" y="-84" type="line"/>
      <point x="114" y="-70" type="line"/>
      <point x="50" y="-133" type="line"/>
    </contour>
  </outline>
</glyph>
<glyph name="merkhakefulaleft-hb" format="2">
  <unicode hex="05A6"/>
  <note>
uni05A6
</note>
  <anchor x="136" y="0" name="_bottomleft"/>
  <outline>
    <contour>
      <point x="122" y="-185" type="curve"/>
      <point x="124" y="-214" type="line"/>
      <point x="149" y="-208"/>
      <point x="165" y="-196"/>
      <point x="174" y="-183" type="curve" smooth="yes"/>
      <point x="186" y="-166"/>
      <point x="186" y="-118"/>
      <point x="183" y="-80" type="curve"/>
      <point x="156" y="-82" type="line"/>
      <point x="158" y="-102"/>
      <point x="157" y="-152"/>
      <point x="151" y="-166" type="curve" smooth="yes"/>
      <point x="147" y="-175"/>
      <point x="137" y="-181"/>
    </contour>
    <contour>
      <point x="50" y="-185" type="curve"/>
      <point x="52" y="-214" type="line"/>
      <point x="77" y="-208"/>
      <point x="93" y="-196"/>
      <point x="102" y="-183" type="curve" smooth="yes"/>
      <point x="114" y="-166"/>
      <point x="114" y="-118"/>
      <point x="111" y="-80" type="curve"/>
      <point x="84" y="-82" type="line"/>
      <point x="85" y="-102"/>
      <point x="85" y="-153"/>
      <point x="79" y="-166" type="curve" smooth="yes"/>
      <point x="75" y="-175"/>
      <point x="64" y="-181"/>
    </contour>
  </outline>
</glyph>
<glyph name="dargaleft-hb" format="2">
  <unicode hex="05A7"/>
  <note>
uni05A7
</note>
  <anchor x="149" y="0" name="_bottomleft"/>
  <outline>
    <contour>
      <point x="57" y="-181" type="line"/>
      <point x="139" y="-158" type="line"/>
      <point x="86" y="-92" type="line"/>
      <point x="132" y="-85" type="line"/>
      <point x="132" y="-66" type="line"/>
      <point x="50" y="-79" type="line"/>
      <point x="103" y="-146" type="line"/>
      <point x="57" y="-161" type="line"/>
    </contour>
  </outline>
</glyph>
<glyph name="ole-hb" format="2">
  <unicode hex="05AB"/>
  <note>
uni05AB
</note>
  <anchor x="104" y="536" name="_top"/>
  <outline>
    <contour>
      <point x="114" y="658" type="line"/>
      <point x="137" y="672" type="line"/>
      <point x="87" y="721" type="line"/>
      <point x="137" y="770" type="line"/>
      <point x="114" y="785" type="line"/>
      <point x="50" y="721" type="line"/>
    </contour>
  </outline>
</glyph>
<glyph name="dehi-hb" format="2">
  <unicode hex="05AD"/>
  <note>
uni05AD
</note>
  <anchor x="52" y="0" name="_bottomleft"/>
  <outline>
    <contour>
      <point x="113" y="-189" type="line"/>
      <point x="98" y="-184"/>
      <point x="87" y="-178"/>
      <point x="83" y="-170" type="curve" smooth="yes"/>
      <point x="76" y="-157"/>
      <point x="77" y="-106"/>
      <point x="78" y="-84" type="curve"/>
      <point x="51" y="-86" type="line"/>
      <point x="48" y="-123"/>
      <point x="49" y="-170"/>
      <point x="61" y="-186" type="curve" smooth="yes"/>
      <point x="71" y="-200"/>
      <point x="87" y="-211"/>
      <point x="111" y="-217" type="curve"/>
    </contour>
  </outline>
</glyph>
<glyph name="masoracircle-hb" format="2">
  <unicode hex="05AF"/>
  <note>
uni05AF
</note>
  <anchor x="100" y="536" name="_top"/>
  <outline>
    <contour>
      <point x="100" y="670" type="curve" smooth="yes"/>
      <point x="128" y="670"/>
      <point x="150" y="692"/>
      <point x="150" y="720" type="curve" smooth="yes"/>
      <point x="150" y="748"/>
      <point x="128" y="771"/>
      <point x="100" y="771" type="curve" smooth="yes"/>
      <point x="72" y="771"/>
      <point x="50" y="748"/>
      <point x="50" y="720" type="curve" smooth="yes"/>
      <point x="50" y="692"/>
      <point x="72" y="670"/>
    </contour>
    <contour>
      <point x="100" y="694" type="curve" smooth="yes"/>
      <point x="85" y="694"/>
      <point x="73" y="706"/>
      <point x="73" y="720" type="curve" smooth="yes"/>
      <point x="73" y="735"/>
      <point x="86" y="748"/>
      <point x="100" y="748" type="curve" smooth="yes"/>
      <point x="114" y="748"/>
      <point x="127" y="735"/>
      <point x="127" y="720" type="curve" smooth="yes"/>
      <point x="127" y="706"/>
      <point x="115" y="694"/>
    </contour>
  </outline>
</glyph>
<glyph name="sheva-hb" format="2">
  <unicode hex="05B0"/>
  <note>
sheva
</note>
  <anchor x="71" y="0" name="_bottom"/>
  <outline>
    <contour>
      <point x="50" y="-94" type="curve" smooth="yes"/>
      <point x="50" y="-110"/>
      <point x="55" y="-122"/>
      <point x="71" y="-122" type="curve" smooth="yes"/>
      <point x="91" y="-122"/>
      <point x="94" y="-110"/>
      <point x="94" y="-94" type="curve" smooth="yes"/>
      <point x="94" y="-80"/>
      <point x="91" y="-66"/>
      <point x="71" y="-66" type="curve" smooth="yes"/>
      <point x="55" y="-66"/>
      <point x="50" y="-80"/>
    </contour>
    <contour>
      <point x="50" y="-183" type="curve" smooth="yes"/>
      <point x="50" y="-199"/>
      <point x="55" y="-211"/>
      <point x="71" y="-211" type="curve" smooth="yes"/>
      <point x="91" y="-211"/>
      <point x="94" y="-199"/>
      <point x="94" y="-183" type="curve" smooth="yes"/>
      <point x="94" y="-169"/>
      <point x="91" y="-155"/>
      <point x="71" y="-155" type="curve" smooth="yes"/>
      <point x="55" y="-155"/>
      <point x="50" y="-169"/>
    </contour>
  </outline>
</glyph>
<glyph name="hatafpatah-hb" format="2">
  <unicode hex="05B2"/>
  <note>
hatafpatah
</note>
  <anchor x="153" y="0" name="_bottom"/>
  <outline>
    <contour>
      <point x="50" y="-107" type="line"/>
      <point x="173" y="-107" type="line"/>
      <point x="176" y="-82" type="line"/>
      <point x="53" y="-82" type="line"/>
    </contour>
    <contour>
      <point x="232" y="-211" type="curve" smooth="yes"/>
      <point x="252" y="-211"/>
      <point x="255" y="-199"/>
      <point x="255" y="-183" type="curve" smooth="yes"/>
      <point x="255" y="-169"/>
      <point x="252" y="-155"/>
      <point x="232" y="-155" type="curve" smooth="yes"/>
      <point x="216" y="-155"/>
      <point x="211" y="-169"/>
      <point x="211" y="-183" type="curve" smooth="yes"/>
      <point x="211" y="-199"/>
      <point x="216" y="-211"/>
    </contour>
    <contour>
      <point x="232" y="-122" type="curve" smooth="yes"/>
      <point x="252" y="-122"/>
      <point x="255" y="-110"/>
      <point x="255" y="-94" type="curve" smooth="yes"/>
      <point x="255" y="-80"/>
      <point x="252" y="-66"/>
      <point x="232" y="-66" type="curve" smooth="yes"/>
      <point x="216" y="-66"/>
      <point x="211" y="-80"/>
      <point x="211" y="-94" type="curve" smooth="yes"/>
      <point x="211" y="-110"/>
      <point x="216" y="-122"/>
    </contour>
  </outline>
</glyph>
<glyph name="hatafqamats-hb" format="2">
  <unicode hex="05B3"/>
  <note>
hatafqamats
</note>
  <anchor x="143" y="0" name="_bottom"/>
  <outline>
    <contour>
      <point x="91" y="-196" type="line"/>
      <point x="116" y="-193" type="line"/>
      <point x="116" y="-106" type="line"/>
      <point x="155" y="-106" type="line"/>
      <point x="158" y="-81" type="line"/>
      <point x="53" y="-81" type="line"/>
      <point x="50" y="-106" type="line"/>
      <point x="91" y="-106" type="line"/>
    </contour>
    <contour>
      <point x="213" y="-211" type="curve" smooth="yes"/>
      <point x="233" y="-211"/>
      <point x="236" y="-199"/>
      <point x="236" y="-183" type="curve" smooth="yes"/>
      <point x="236" y="-169"/>
      <point x="233" y="-155"/>
      <point x="213" y="-155" type="curve" smooth="yes"/>
      <point x="197" y="-155"/>
      <point x="192" y="-169"/>
      <point x="192" y="-183" type="curve" smooth="yes"/>
      <point x="192" y="-199"/>
      <point x="197" y="-211"/>
    </contour>
    <contour>
      <point x="213" y="-122" type="curve" smooth="yes"/>
      <point x="233" y="-122"/>
      <point x="236" y="-110"/>
      <point x="236" y="-94" type="curve" smooth="yes"/>
      <point x="236" y="-80"/>
      <point x="233" y="-66"/>
      <point x="213" y="-66" type="curve" smooth="yes"/>
      <point x="197" y="-66"/>
      <point x="192" y="-80"/>
      <point x="192" y="-94" type="curve" smooth="yes"/>
      <point x="192" y="-110"/>
      <point x="197" y="-122"/>
    </contour>
  </outline>
</glyph>
<glyph name="hiriq-hb" format="2">
  <unicode hex="05B4"/>
  <note>
hiriq
</note>
  <anchor x="71" y="0" name="_bottom"/>
  <outline>
    <contour>
      <point x="71" y="-122" type="curve" smooth="yes"/>
      <point x="91" y="-122"/>
      <point x="94" y="-110"/>
      <point x="94" y="-94" type="curve" smooth="yes"/>
      <point x="94" y="-80"/>
      <point x="91" y="-66"/>
      <point x="71" y="-66" type="curve" smooth="yes"/>
      <point x="55" y="-66"/>
      <point x="50" y="-80"/>
      <point x="50" y="-94" type="curve" smooth="yes"/>
      <point x="50" y="-110"/>
      <point x="55" y="-122"/>
    </contour>
  </outline>
</glyph>
<glyph name="tsere-hb" format="2">
  <unicode hex="05B5"/>
  <note>
tsere
</note>
  <anchor x="115" y="0" name="_bottom"/>
  <outline>
    <contour>
      <point x="157" y="-122" type="curve" smooth="yes"/>
      <point x="177" y="-122"/>
      <point x="180" y="-110"/>
      <point x="180" y="-94" type="curve" smooth="yes"/>
      <point x="180" y="-80"/>
      <point x="177" y="-66"/>
      <point x="157" y="-66" type="curve" smooth="yes"/>
      <point x="140" y="-66"/>
      <point x="136" y="-80"/>
      <point x="136" y="-94" type="curve" smooth="yes"/>
      <point x="136" y="-110"/>
      <point x="140" y="-122"/>
    </contour>
    <contour>
      <point x="70" y="-122" type="curve" smooth="yes"/>
      <point x="90" y="-122"/>
      <point x="93" y="-110"/>
      <point x="93" y="-94" type="curve" smooth="yes"/>
      <point x="93" y="-80"/>
      <point x="90" y="-66"/>
      <point x="70" y="-66" type="curve" smooth="yes"/>
      <point x="54" y="-66"/>
      <point x="50" y="-80"/>
      <point x="50" y="-94" type="curve" smooth="yes"/>
      <point x="50" y="-110"/>
      <point x="54" y="-122"/>
    </contour>
  </outline>
</glyph>
<glyph name="qubuts-hb" format="2">
  <unicode hex="05BB"/>
  <note>
qubuts
</note>
  <anchor x="130" y="0" name="_bottom"/>
  <outline>
    <contour>
      <point x="187" y="-211" type="curve" smooth="yes"/>
      <point x="207" y="-211"/>
      <point x="210" y="-199"/>
      <point x="210" y="-183" type="curve" smooth="yes"/>
      <point x="210" y="-169"/>
      <point x="207" y="-155"/>
      <point x="187" y="-155" type="curve" smooth="yes"/>
      <point x="170" y="-155"/>
      <point x="166" y="-169"/>
      <point x="166" y="-183" type="curve" smooth="yes"/>
      <point x="166" y="-199"/>
      <point x="170" y="-211"/>
    </contour>
    <contour>
      <point x="71" y="-122" type="curve" smooth="yes"/>
      <point x="91" y="-122"/>
      <point x="94" y="-110"/>
      <point x="94" y="-94" type="curve" smooth="yes"/>
      <point x="94" y="-80"/>
      <point x="91" y="-66"/>
      <point x="71" y="-66" type="curve" smooth="yes"/>
      <point x="55" y="-66"/>
      <point x="50" y="-80"/>
      <point x="50" y="-94" type="curve" smooth="yes"/>
      <point x="50" y="-110"/>
      <point x="55" y="-122"/>
    </contour>
    <contour>
      <point x="129" y="-167" type="curve" smooth="yes"/>
      <point x="149" y="-167"/>
      <point x="152" y="-154"/>
      <point x="152" y="-139" type="curve" smooth="yes"/>
      <point x="152" y="-124"/>
      <point x="149" y="-111"/>
      <point x="129" y="-111" type="curve"/>
      <point x="113" y="-111"/>
      <point x="108" y="-124"/>
      <point x="108" y="-139" type="curve" smooth="yes"/>
      <point x="108" y="-154"/>
      <point x="113" y="-167"/>
    </contour>
  </outline>
</glyph>
<glyph name="siluqleft-hb" format="2">
  <unicode hex="05BD"/>
  <note>
meteg
</note>
  <anchor x="63" y="0" name="_bottomleft"/>
  <outline>
    <contour>
      <point x="50" y="-211" type="line"/>
      <point x="75" y="-208" type="line"/>
      <point x="75" y="-66" type="line"/>
      <point x="50" y="-69" type="line"/>
    </contour>
  </outline>
</glyph>
<glyph name="paseq-hb" format="2">
  <advance width="558"/>
  <unicode hex="05C0"/>
  <note>
paseq
</note>
  <outline>
    <contour>
      <point x="265" y="673" type="line"/>
      <point x="265" y="-81" type="line"/>
      <point x="293" y="-81" type="line"/>
      <point x="293" y="673" type="line"/>
    </contour>
  </outline>
</glyph>
<glyph name="nunhafukha-hb" format="2">
  <advance width="329"/>
  <unicode hex="05C6"/>
  <note>
uni05C6
</note>
  <outline>
    <contour>
      <point x="147" y="0" type="curve" smooth="yes"/>
      <point x="292" y="0" type="line"/>
      <point x="289" y="28" type="line"/>
      <point x="159" y="28" type="line" smooth="yes"/>
      <point x="114" y="28"/>
      <point x="102" y="44"/>
      <point x="102" y="86" type="curve" smooth="yes"/>
      <point x="102" y="516" type="line" smooth="yes"/>
      <point x="102" y="553"/>
      <point x="117" y="564"/>
      <point x="144" y="564" type="curve" smooth="yes"/>
      <point x="210" y="564" type="line" smooth="yes"/>
      <point x="225" y="564"/>
      <point x="229" y="571"/>
      <point x="229" y="585" type="curve" smooth="yes"/>
      <point x="229" y="597"/>
      <point x="226" y="625"/>
      <point x="222" y="647" type="curve"/>
      <point x="209" y="647" type="line"/>
      <point x="209" y="627" type="line" smooth="yes"/>
      <point x="209" y="603"/>
      <point x="202" y="592"/>
      <point x="187" y="592" type="curve" smooth="yes"/>
      <point x="144" y="592" type="line" smooth="yes"/>
      <point x="97" y="592"/>
      <point x="77" y="572"/>
      <point x="77" y="523" type="curve" smooth="yes"/>
      <point x="77" y="92" type="line" smooth="yes"/>
      <point x="77" y="22"/>
      <point x="103" y="0"/>
    </contour>
  </outline>
</glyph>
<glyph name="alef-hb" format="2">
  <advance width="579"/>
  <unicode hex="05D0"/>
  <anchor x="307" y="0" name="bottom"/>
  <anchor x="77" y="0" name="bottomleft"/>
  <anchor x="232" y="203" name="center"/>
  <anchor x="290" y="536" name="top"/>
  <anchor x="21" y="536" name="topleft"/>
  <outline>
    <contour>
      <point x="499" y="-3" type="curve"/>
      <point x="509" y="-3" type="line"/>
      <point x="512" y="3"/>
      <point x="514" y="11"/>
      <point x="514" y="17" type="curve" smooth="yes"/>
      <point x="514" y="31"/>
      <point x="504" y="48"/>
      <point x="490" y="67" type="curve" smooth="yes"/>
      <point x="91" y="614" type="line" smooth="yes"/>
      <point x="86" y="621"/>
      <point x="81" y="629"/>
      <point x="81" y="642" type="curve" smooth="yes"/>
      <point x="81" y="647" type="line"/>
      <point x="68" y="647" type="line"/>
      <point x="65" y="638"/>
      <point x="62" y="629"/>
      <point x="62" y="621" type="curve" smooth="yes"/>
      <point x="62" y="611"/>
      <point x="67" y="601"/>
      <point x="77" y="587" type="curve" smooth="yes"/>
      <point x="486" y="28" type="line" smooth="yes"/>
      <point x="495" y="16"/>
      <point x="499" y="9"/>
    </contour>
    <contour>
      <point x="70" y="0" type="line"/>
      <point x="130" y="0" type="line"/>
      <point x="132" y="10"/>
      <point x="133" y="15"/>
      <point x="130" y="43" type="curve" smooth="yes"/>
      <point x="110" y="230" type="line" smooth="yes"/>
      <point x="105" y="277"/>
      <point x="114" y="330"/>
      <point x="130" y="379" type="curve" smooth="yes"/>
      <point x="170" y="499" type="line"/>
      <point x="143" y="499" type="line"/>
      <point x="103" y="379" type="line" smooth="yes"/>
      <point x="84" y="323"/>
      <point x="79" y="272"/>
      <point x="84" y="225" type="curve" smooth="yes"/>
      <point x="104" y="35" type="line" smooth="yes"/>
      <point x="105" y="23"/>
      <point x="103" y="20"/>
      <point x="95" y="20" type="curve" smooth="yes"/>
      <point x="70" y="20" type="line"/>
    </contour>
    <contour>
      <point x="400" y="185" type="line"/>
      <point x="400" y="334"/>
      <point x="415" y="392"/>
      <point x="439" y="459" type="curve" smooth="yes"/>
      <point x="482" y="580" type="line"/>
      <point x="456" y="580" type="line"/>
      <point x="412" y="459" type="line" smooth="yes"/>
      <point x="391" y="402"/>
      <point x="374" y="315"/>
      <point x="374" y="218" type="curve"/>
    </contour>
    <contour>
      <point x="522" y="561" type="line"/>
      <point x="524" y="566"/>
      <point x="526" y="572"/>
      <point x="526" y="578" type="curve" smooth="yes"/>
      <point x="526" y="584"/>
      <point x="524" y="589"/>
      <point x="517" y="590" type="curve" smooth="yes"/>
      <point x="445" y="598" type="line" smooth="yes"/>
      <point x="426" y="600"/>
      <point x="423" y="604"/>
      <point x="423" y="629" type="curve" smooth="yes"/>
      <point x="423" y="647" type="line"/>
      <point x="410" y="647" type="line"/>
      <point x="406" y="628"/>
      <point x="403" y="611"/>
      <point x="403" y="597" type="curve" smooth="yes"/>
      <point x="403" y="580"/>
      <point x="407" y="575"/>
      <point x="422" y="573" type="curve" smooth="yes"/>
    </contour>
  </outline>
</glyph>
<glyph name="bet-hb" format="2">
  <advance width="496"/>
  <unicode hex="05D1"/>
  <anchor x="242" y="0" name="bottom"/>
  <anchor x="-17" y="0" name="bottomleft"/>
  <anchor x="196" y="310" name="center"/>
  <anchor x="203" y="536" name="top"/>
  <anchor x="0" y="536" name="topleft"/>
  <outline>
    <contour>
      <point x="46" y="0" type="line"/>
      <point x="438" y="0" type="line"/>
      <point x="438" y="28" type="line"/>
      <point x="379" y="28" type="line"/>
      <point x="383" y="41"/>
      <point x="392" y="110"/>
      <point x="392" y="143" type="curve" smooth="yes"/>
      <point x="392" y="523" type="line" smooth="yes"/>
      <point x="392" y="572"/>
      <point x="372" y="592"/>
      <point x="325" y="592" type="curve" smooth="yes"/>
      <point x="92" y="592" type="line" smooth="yes"/>
      <point x="77" y="592"/>
      <point x="70" y="603"/>
      <point x="70" y="627" type="curve" smooth="yes"/>
      <point x="70" y="647" type="line"/>
      <point x="57" y="647" type="line"/>
      <point x="53" y="625"/>
      <point x="50" y="597"/>
      <point x="50" y="585" type="curve" smooth="yes"/>
      <point x="50" y="571"/>
      <point x="54" y="564"/>
      <point x="69" y="564" type="curve" smooth="yes"/>
      <point x="323" y="564" type="line" smooth="yes"/>
      <point x="350" y="564"/>
      <point x="365" y="553"/>
      <point x="365" y="516" type="curve" smooth="yes"/>
      <point x="365" y="130" type="line" smooth="yes"/>
      <point x="365" y="102"/>
      <point x="357" y="41"/>
      <point x="352" y="28" type="curve"/>
      <point x="49" y="28" type="line"/>
    </contour>
  </outline>
</glyph>
<glyph name="gimel-hb" format="2">
  <advance width="275"/>
  <unicode hex="05D2"/>
  <anchor x="182" y="0" name="bottom"/>
  <anchor x="0" y="0" name="bottomleft"/>
  <anchor x="106" y="310" name="center"/>
  <anchor x="157" y="536" name="top"/>
  <anchor x="40" y="536" name="topleft"/>
  <outline>
    <contour>
      <point x="219" y="-3" type="curve"/>
      <point x="222" y="-3" type="line"/>
      <point x="227" y="-3"/>
      <point x="239" y="5"/>
      <point x="243" y="10" type="curve"/>
      <point x="216" y="121" type="line" smooth="yes"/>
      <point x="211" y="140"/>
      <point x="209" y="158"/>
      <point x="209" y="176" type="curve" smooth="yes"/>
      <point x="209" y="571" type="line" smooth="yes"/>
      <point x="209" y="584"/>
      <point x="204" y="592"/>
      <point x="190" y="592" type="curve" smooth="yes"/>
      <point x="124" y="592" type="line" smooth="yes"/>
      <point x="109" y="592"/>
      <point x="102" y="603"/>
      <point x="102" y="627" type="curve" smooth="yes"/>
      <point x="102" y="647" type="line"/>
      <point x="89" y="647" type="line"/>
      <point x="87" y="635"/>
      <point x="82" y="606"/>
      <point x="82" y="582" type="curve" smooth="yes"/>
      <point x="82" y="570"/>
      <point x="88" y="564"/>
      <point x="101" y="564" type="curve" smooth="yes"/>
      <point x="171" y="564" type="line" smooth="yes"/>
      <point x="180" y="564"/>
      <point x="182" y="560"/>
      <point x="182" y="550" type="curve" smooth="yes"/>
      <point x="182" y="146" type="line" smooth="yes"/>
      <point x="182" y="101"/>
      <point x="138" y="28"/>
      <point x="107" y="28" type="curve" smooth="yes"/>
      <point x="28" y="28" type="line"/>
      <point x="25" y="0" type="line"/>
      <point x="131" y="0" type="line" smooth="yes"/>
      <point x="140" y="0"/>
      <point x="143" y="5"/>
      <point x="149" y="15" type="curve" smooth="yes"/>
      <point x="195" y="97" type="line"/>
      <point x="202" y="73"/>
      <point x="212" y="20"/>
    </contour>
  </outline>
</glyph>
<glyph name="dalet-hb" format="2">
  <advance width="455"/>
  <unicode hex="05D3"/>
  <anchor x="338" y="0" name="bottom"/>
  <anchor x="123" y="0" name="bottomleft"/>
  <anchor x="184" y="310" name="center"/>
  <anchor x="225" y="536" name="top"/>
  <anchor x="0" y="536" name="topleft"/>
  <outline>
    <contour>
      <point x="320" y="-6" type="line"/>
      <point x="325" y="-6" type="line"/>
      <point x="335" y="-2"/>
      <point x="344" y="2"/>
      <point x="350" y="8" type="curve"/>
      <point x="345" y="564" type="line"/>
      <point x="393" y="564" type="line"/>
      <point x="393" y="583" type="line" smooth="yes"/>
      <point x="393" y="589"/>
      <point x="389" y="592"/>
      <point x="383" y="592" type="curve" smooth="yes"/>
      <point x="67" y="592" type="line" smooth="yes"/>
      <point x="52" y="592"/>
      <point x="45" y="603"/>
      <point x="45" y="627" type="curve" smooth="yes"/>
      <point x="45" y="647" type="line"/>
      <point x="32" y="647" type="line"/>
      <point x="30" y="635"/>
      <point x="25" y="606"/>
      <point x="25" y="582" type="curve" smooth="yes"/>
      <point x="25" y="570"/>
      <point x="31" y="564"/>
      <point x="44" y="564" type="curve" smooth="yes"/>
      <point x="322" y="564" type="line"/>
      <point x="322" y="563" type="line" smooth="yes"/>
      <point x="322" y="530"/>
      <point x="320" y="502"/>
      <point x="320" y="444" type="curve" smooth="yes"/>
    </contour>
  </outline>
</glyph>
<glyph name="he-hb" format="2">
  <advance width="570"/>
  <unicode hex="05D4"/>
  <anchor x="279" y="0" name="bottom"/>
  <anchor x="57" y="0" name="bottomleft"/>
  <anchor x="279" y="310" name="center"/>
  <anchor x="294" y="536" name="top"/>
  <anchor x="0" y="536" name="topleft"/>
  <outline>
    <contour>
      <point x="443" y="-6" type="line"/>
      <point x="448" y="-6" type="line"/>
      <point x="458" y="-2"/>
      <point x="467" y="2"/>
      <point x="473" y="8" type="curve"/>
      <point x="467" y="564" type="line"/>
      <point x="483" y="567" type="line"/>
      <point x="483" y="583" type="line" smooth="yes"/>
      <point x="483" y="589"/>
      <point x="479" y="592"/>
      <point x="473" y="592" type="curve" smooth="yes"/>
      <point x="114" y="592" type="line" smooth="yes"/>
      <point x="99" y="592"/>
      <point x="92" y="603"/>
      <point x="92" y="627" type="curve" smooth="yes"/>
      <point x="92" y="647" type="line"/>
      <point x="79" y="647" type="line"/>
      <point x="75" y="625"/>
      <point x="72" y="597"/>
      <point x="72" y="585" type="curve" smooth="yes"/>
      <point x="72" y="571"/>
      <point x="76" y="564"/>
      <point x="91" y="564" type="curve" smooth="yes"/>
      <point x="444" y="564" type="line"/>
      <point x="444" y="563" type="line"/>
      <point x="443" y="541"/>
      <point x="443" y="502"/>
      <point x="443" y="444" type="curve" smooth="yes"/>
    </contour>
    <contour>
      <point x="87" y="-6" type="line"/>
      <point x="92" y="-6" type="line"/>
      <point x="102" y="-2"/>
      <point x="108" y="2"/>
      <point x="114" y="8" type="curve"/>
      <point x="114" y="378" type="line"/>
      <point x="110" y="382" type="line"/>
      <point x="101" y="375" type="line" smooth="yes"/>
      <point x="91" y="368"/>
      <point x="87" y="352"/>
      <point x="87" y="314" type="curve" smooth="yes"/>
    </contour>
  </outline>
</glyph>
<glyph name="vav-hb" format="2">
  <advance width="272"/>
  <unicode hex="05D5"/>
  <anchor x="170" y="0" name="bottom"/>
  <anchor x="-2" y="0" name="bottomleft"/>
  <anchor x="88" y="310" name="center"/>
  <anchor x="129" y="536" name="top"/>
  <anchor x="0" y="536" name="topleft"/>
  <outline>
    <contour>
      <point x="155" y="-6" type="line"/>
      <point x="160" y="-6" type="line"/>
      <point x="170" y="-2"/>
      <point x="179" y="2"/>
      <point x="185" y="8" type="curve"/>
      <point x="182" y="571" type="line" smooth="yes"/>
      <point x="182" y="584"/>
      <point x="177" y="592"/>
      <point x="163" y="592" type="curve" smooth="yes"/>
      <point x="94" y="592" type="line" smooth="yes"/>
      <point x="79" y="592"/>
      <point x="72" y="603"/>
      <point x="72" y="627" type="curve" smooth="yes"/>
      <point x="72" y="647" type="line"/>
      <point x="59" y="647" type="line"/>
      <point x="57" y="635"/>
      <point x="52" y="606"/>
      <point x="52" y="582" type="curve" smooth="yes"/>
      <point x="52" y="570"/>
      <point x="58" y="564"/>
      <point x="71" y="564" type="curve" smooth="yes"/>
      <point x="143" y="564" type="line" smooth="yes"/>
      <point x="152" y="564"/>
      <point x="155" y="560"/>
      <point x="155" y="550" type="curve" smooth="yes"/>
    </contour>
  </outline>
</glyph>
<glyph name="zayin-hb" format="2">
  <advance width="247"/>
  <unicode hex="05D6"/>
  <anchor x="142" y="0" name="bottom"/>
  <anchor x="-23" y="0" name="bottomleft"/>
  <anchor x="28" y="310" name="center"/>
  <anchor x="128" y="536" name="top"/>
  <anchor x="1" y="536" name="topleft"/>
  <outline>
    <contour>
      <point x="123" y="-6" type="curve"/>
      <point x="128" y="-6" type="line"/>
      <point x="138" y="-2"/>
      <point x="147" y="2"/>
      <point x="153" y="8" type="curve"/>
      <point x="140" y="72"/>
      <point x="122" y="201"/>
      <point x="122" y="335" type="curve" smooth="yes"/>
      <point x="122" y="424"/>
      <point x="130" y="501"/>
      <point x="146" y="581" type="curve"/>
      <point x="119" y="581" type="line"/>
      <point x="103" y="498"/>
      <point x="95" y="407"/>
      <point x="95" y="325" type="curve" smooth="yes"/>
      <point x="95" y="216"/>
      <point x="109" y="85"/>
    </contour>
    <contour>
      <point x="191" y="560" type="line"/>
      <point x="193" y="565"/>
      <point x="195" y="570"/>
      <point x="195" y="578" type="curve" smooth="yes"/>
      <point x="195" y="584"/>
      <point x="192" y="588"/>
      <point x="186" y="589" type="curve" smooth="yes"/>
      <point x="105" y="598" type="line" smooth="yes"/>
      <point x="86" y="600"/>
      <point x="83" y="604"/>
      <point x="83" y="629" type="curve" smooth="yes"/>
      <point x="83" y="647" type="line"/>
      <point x="70" y="647" type="line"/>
      <point x="66" y="628"/>
      <point x="63" y="612"/>
      <point x="63" y="595" type="curve" smooth="yes"/>
      <point x="63" y="581"/>
      <point x="67" y="575"/>
      <point x="82" y="573" type="curve" smooth="yes"/>
    </contour>
  </outline>
</glyph>
<glyph name="het-hb" format="2">
  <advance width="589"/>
  <unicode hex="05D7"/>
  <anchor x="297" y="0" name="bottom"/>
  <anchor x="79" y="0" name="bottomleft"/>
  <anchor x="297" y="310" name="center"/>
  <anchor x="295" y="536" name="top"/>
  <anchor x="16" y="536" name="topleft"/>
  <outline>
    <contour>
      <point x="462" y="-6" type="line"/>
      <point x="467" y="-6" type="line"/>
      <point x="477" y="-2"/>
      <point x="486" y="2"/>
      <point x="492" y="8" type="curve"/>
      <point x="487" y="564" type="line"/>
      <point x="502" y="567" type="line"/>
      <point x="502" y="583" type="line" smooth="yes"/>
      <point x="502" y="589"/>
      <point x="498" y="592"/>
      <point x="492" y="592" type="curve" smooth="yes"/>
      <point x="114" y="592" type="line" smooth="yes"/>
      <point x="99" y="592"/>
      <point x="92" y="603"/>
      <point x="92" y="627" type="curve" smooth="yes"/>
      <point x="92" y="647" type="line"/>
      <point x="79" y="647" type="line"/>
      <point x="75" y="625"/>
      <point x="72" y="597"/>
      <point x="72" y="585" type="curve" smooth="yes"/>
      <point x="72" y="571"/>
      <point x="76" y="564"/>
      <point x="91" y="564" type="curve" smooth="yes"/>
      <point x="464" y="564" type="line"/>
      <point x="464" y="563" type="line"/>
      <point x="462" y="535"/>
      <point x="462" y="502"/>
      <point x="462" y="444" type="curve" smooth="yes"/>
    </contour>
    <contour>
      <point x="101" y="-6" type="line"/>
      <point x="106" y="-6" type="line"/>
      <point x="116" y="-2"/>
      <point x="125" y="2"/>
      <point x="131" y="8" type="curve"/>
      <point x="126" y="572" type="line"/>
      <point x="103" y="572" type="line"/>
      <point x="103" y="563" type="line"/>
      <point x="102" y="535"/>
      <point x="101" y="502"/>
      <point x="101" y="444" type="curve" smooth="yes"/>
    </contour>
  </outline>
</glyph>
<glyph name="tet-hb" format="2">
  <advance width="576"/>
  <unicode hex="05D8"/>
  <anchor x="268" y="0" name="bottom"/>
  <anchor x="92" y="0" name="bottomleft"/>
  <anchor x="307" y="310" name="center"/>
  <anchor x="273" y="536" name="top"/>
  <anchor x="1" y="536" name="topleft"/>
  <outline>
    <contour>
      <point x="117" y="0" type="curve"/>
      <point x="362" y="0" type="line" smooth="yes"/>
      <point x="419" y="0"/>
      <point x="431" y="12"/>
      <point x="451" y="55" type="curve" smooth="yes"/>
      <point x="517" y="197"/>
      <point x="524" y="316"/>
      <point x="524" y="382" type="curve" smooth="yes"/>
      <point x="524" y="533"/>
      <point x="486" y="604"/>
      <point x="401" y="604" type="curve" smooth="yes"/>
      <point x="316" y="604"/>
      <point x="273" y="544"/>
      <point x="273" y="422" type="curve"/>
      <point x="301" y="422" type="line"/>
      <point x="301" y="523"/>
      <point x="332" y="575"/>
      <point x="395" y="575" type="curve" smooth="yes"/>
      <point x="481" y="575"/>
      <point x="496" y="483"/>
      <point x="496" y="387" type="curve" smooth="yes"/>
      <point x="496" y="237"/>
      <point x="455" y="134"/>
      <point x="423" y="70" type="curve" smooth="yes"/>
      <point x="406" y="36"/>
      <point x="398" y="28"/>
      <point x="372" y="28" type="curve" smooth="yes"/>
      <point x="144" y="28" type="line"/>
      <point x="129" y="110"/>
      <point x="117" y="231"/>
      <point x="117" y="342" type="curve" smooth="yes"/>
      <point x="117" y="477"/>
      <point x="135" y="551"/>
      <point x="141" y="581" type="curve"/>
      <point x="114" y="581" type="line"/>
      <point x="108" y="550"/>
      <point x="90" y="451"/>
      <point x="90" y="326" type="curve" smooth="yes"/>
      <point x="90" y="208"/>
      <point x="106" y="71"/>
    </contour>
    <contour>
      <point x="182" y="561" type="line"/>
      <point x="184" y="566"/>
      <point x="186" y="571"/>
      <point x="186" y="579" type="curve" smooth="yes"/>
      <point x="186" y="585"/>
      <point x="183" y="589"/>
      <point x="177" y="590" type="curve" smooth="yes"/>
      <point x="105" y="598" type="line" smooth="yes"/>
      <point x="86" y="600"/>
      <point x="83" y="604"/>
      <point x="83" y="629" type="curve" smooth="yes"/>
      <point x="83" y="647" type="line"/>
      <point x="70" y="647" type="line"/>
      <point x="66" y="628"/>
      <point x="63" y="612"/>
      <point x="63" y="595" type="curve" smooth="yes"/>
      <point x="63" y="581"/>
      <point x="67" y="575"/>
      <point x="82" y="573" type="curve" smooth="yes"/>
    </contour>
  </outline>
</glyph>
<glyph name="yod-hb" format="2">
  <advance width="290"/>
  <unicode hex="05D9"/>
  <anchor x="163" y="0" name="bottom"/>
  <anchor x="-2" y="0" name="bottomleft"/>
  <anchor x="118" y="483" name="center"/>
  <anchor x="149" y="536" name="top"/>
  <anchor x="-1" y="536" name="topleft"/>
  <outline>
    <contour>
      <point x="140" y="353" type="line"/>
      <point x="188" y="424" type="line" smooth="yes"/>
      <point x="213" y="461"/>
      <point x="228" y="516"/>
      <point x="228" y="556" type="curve" smooth="yes"/>
      <point x="228" y="586"/>
      <point x="220" y="592"/>
      <point x="202" y="592" type="curve" smooth="yes"/>
      <point x="94" y="592" type="line" smooth="yes"/>
      <point x="79" y="592"/>
      <point x="72" y="603"/>
      <point x="72" y="627" type="curve" smooth="yes"/>
      <point x="72" y="647" type="line"/>
      <point x="59" y="647" type="line"/>
      <point x="55" y="625"/>
      <point x="52" y="597"/>
      <point x="52" y="585" type="curve" smooth="yes"/>
      <point x="52" y="571"/>
      <point x="56" y="564"/>
      <point x="71" y="564" type="curve" smooth="yes"/>
      <point x="188" y="564" type="line" smooth="yes"/>
      <point x="200" y="564"/>
      <point x="201" y="559"/>
      <point x="201" y="546" type="curve" smooth="yes"/>
      <point x="201" y="508"/>
      <point x="193" y="471"/>
      <point x="170" y="438" type="curve" smooth="yes"/>
      <point x="122" y="368" type="line"/>
    </contour>
  </outline>
</glyph>
<glyph name="finalkaf-hb" format="2">
  <advance width="463"/>
  <unicode hex="05DA"/>
  <anchor x="198" y="404" name="bottom"/>
  <anchor x="0" y="0" name="bottomleft"/>
  <anchor x="197" y="310" name="center"/>
  <anchor x="216" y="536" name="top"/>
  <anchor x="-1" y="536" name="topleft"/>
  <outline>
    <contour>
      <point x="341" y="-240" type="line"/>
      <point x="346" y="-240" type="line"/>
      <point x="356" y="-236"/>
      <point x="365" y="-232"/>
      <point x="371" y="-226" type="curve"/>
      <point x="367" y="445" type="line" smooth="yes"/>
      <point x="367" y="498"/>
      <point x="373" y="539"/>
      <point x="376" y="564" type="curve"/>
      <point x="376" y="583" type="line" smooth="yes"/>
      <point x="376" y="589"/>
      <point x="372" y="592"/>
      <point x="366" y="592" type="curve" smooth="yes"/>
      <point x="66" y="592" type="line" smooth="yes"/>
      <point x="51" y="592"/>
      <point x="44" y="603"/>
      <point x="44" y="627" type="curve" smooth="yes"/>
      <point x="44" y="647" type="line"/>
      <point x="31" y="647" type="line"/>
      <point x="27" y="625"/>
      <point x="24" y="597"/>
      <point x="24" y="585" type="curve" smooth="yes"/>
      <point x="24" y="571"/>
      <point x="28" y="564"/>
      <point x="43" y="564" type="curve" smooth="yes"/>
      <point x="350" y="564" type="line"/>
      <point x="350" y="563" type="line"/>
      <point x="347" y="540"/>
      <point x="341" y="502"/>
      <point x="341" y="445" type="curve" smooth="yes"/>
    </contour>
  </outline>
</glyph>
<glyph name="kaf-hb" format="2">
  <advance width="508"/>
  <unicode hex="05DB"/>
  <anchor x="233" y="0" name="bottom"/>
  <anchor x="60" y="0" name="bottomleft"/>
  <anchor x="245" y="310" name="center"/>
  <anchor x="232" y="536" name="top"/>
  <anchor x="-1" y="536" name="topleft"/>
  <outline>
    <contour>
      <point x="60" y="0" type="line"/>
      <point x="361" y="0" type="line" smooth="yes"/>
      <point x="405" y="0"/>
      <point x="431" y="22"/>
      <point x="431" y="92" type="curve" smooth="yes"/>
      <point x="431" y="516" type="line" smooth="yes"/>
      <point x="431" y="565"/>
      <point x="405" y="592"/>
      <point x="358" y="592" type="curve" smooth="yes"/>
      <point x="106" y="592" type="line" smooth="yes"/>
      <point x="91" y="592"/>
      <point x="84" y="603"/>
      <point x="84" y="627" type="curve" smooth="yes"/>
      <point x="84" y="647" type="line"/>
      <point x="71" y="647" type="line"/>
      <point x="67" y="625"/>
      <point x="64" y="597"/>
      <point x="64" y="585" type="curve" smooth="yes"/>
      <point x="64" y="571"/>
      <point x="68" y="564"/>
      <point x="83" y="564" type="curve" smooth="yes"/>
      <point x="357" y="564" type="line" smooth="yes"/>
      <point x="383" y="564"/>
      <point x="404" y="547"/>
      <point x="404" y="509" type="curve" smooth="yes"/>
      <point x="404" y="86" type="line" smooth="yes"/>
      <point x="404" y="44"/>
      <point x="392" y="28"/>
      <point x="347" y="28" type="curve" smooth="yes"/>
      <point x="63" y="28" type="line"/>
    </contour>
  </outline>
</glyph>
<glyph name="lamed-hb" format="2">
  <advance width="483"/>
  <unicode hex="05DC"/>
  <anchor x="194" y="0" name="bottom"/>
  <anchor x="48" y="0" name="bottomleft"/>
  <anchor x="218" y="369" name="center"/>
  <anchor x="224" y="536" name="top"/>
  <anchor x="-23" y="536" name="topleft"/>
  <outline>
    <contour>
      <point x="192" y="-7" type="curve" smooth="yes"/>
      <point x="202" y="-7"/>
      <point x="207" y="-1"/>
      <point x="207" y="7" type="curve" smooth="yes"/>
      <point x="207" y="80" type="line" smooth="yes"/>
      <point x="207" y="93"/>
      <point x="210" y="99"/>
      <point x="221" y="111" type="curve" smooth="yes"/>
      <point x="393" y="302" type="line" smooth="yes"/>
      <point x="405" y="316"/>
      <point x="412" y="329"/>
      <point x="412" y="341" type="curve" smooth="yes"/>
      <point x="413" y="551" type="line" smooth="yes"/>
      <point x="413" y="569"/>
      <point x="409" y="592"/>
      <point x="377" y="592" type="curve" smooth="yes"/>
      <point x="73" y="592" type="line" smooth="yes"/>
      <point x="59" y="592"/>
      <point x="53" y="598"/>
      <point x="57" y="613" type="curve" smooth="yes"/>
      <point x="107" y="798" type="line" smooth="yes"/>
      <point x="113" y="822"/>
      <point x="109" y="830"/>
      <point x="97" y="831" type="curve" smooth="yes"/>
      <point x="79" y="833" type="line" smooth="yes"/>
      <point x="61" y="835"/>
      <point x="57" y="850"/>
      <point x="57" y="862" type="curve" smooth="yes"/>
      <point x="57" y="873" type="line"/>
      <point x="44" y="873" type="line"/>
      <point x="42" y="865"/>
      <point x="37" y="841"/>
      <point x="37" y="826" type="curve" smooth="yes"/>
      <point x="37" y="813"/>
      <point x="41" y="809"/>
      <point x="52" y="807" type="curve" smooth="yes"/>
      <point x="72" y="804" type="line" smooth="yes"/>
      <point x="79" y="803"/>
      <point x="79" y="799"/>
      <point x="78" y="794" type="curve" smooth="yes"/>
      <point x="73" y="770"/>
      <point x="24" y="602"/>
      <point x="24" y="580" type="curve" smooth="yes"/>
      <point x="24" y="566"/>
      <point x="39" y="564"/>
      <point x="48" y="564" type="curve" smooth="yes"/>
      <point x="366" y="564" type="line" smooth="yes"/>
      <point x="378" y="564"/>
      <point x="385" y="557"/>
      <point x="385" y="545" type="curve" smooth="yes"/>
      <point x="385" y="345" type="line" smooth="yes"/>
      <point x="385" y="336"/>
      <point x="383" y="331"/>
      <point x="375" y="322" type="curve" smooth="yes"/>
      <point x="200" y="128" type="line" smooth="yes"/>
      <point x="185" y="111"/>
      <point x="177" y="95"/>
      <point x="177" y="80" type="curve" smooth="yes"/>
      <point x="177" y="7" type="line" smooth="yes"/>
      <point x="177" y="-1"/>
      <point x="183" y="-7"/>
    </contour>
  </outline>
</glyph>
<glyph name="finalmem-hb" format="2">
  <advance width="560"/>
  <unicode hex="05DD"/>
  <anchor x="253" y="0" name="bottom"/>
  <anchor x="0" y="0" name="bottomleft"/>
  <anchor x="270" y="310" name="center"/>
  <anchor x="255" y="536" name="top"/>
  <anchor x="0" y="536" name="topleft"/>
  <outline>
    <contour>
      <point x="103" y="0" type="curve" smooth="yes"/>
      <point x="403" y="0" type="line" smooth="yes"/>
      <point x="447" y="0"/>
      <point x="473" y="22"/>
      <point x="473" y="92" type="curve" smooth="yes"/>
      <point x="473" y="516" type="line" smooth="yes"/>
      <point x="473" y="565"/>
      <point x="447" y="592"/>
      <point x="400" y="592" type="curve" smooth="yes"/>
      <point x="109" y="592" type="line" smooth="yes"/>
      <point x="94" y="592"/>
      <point x="87" y="603"/>
      <point x="87" y="627" type="curve" smooth="yes"/>
      <point x="87" y="647" type="line"/>
      <point x="74" y="647" type="line"/>
      <point x="70" y="625"/>
      <point x="67" y="597"/>
      <point x="67" y="585" type="curve" smooth="yes"/>
      <point x="67" y="571"/>
      <point x="71" y="564"/>
      <point x="86" y="564" type="curve" smooth="yes"/>
      <point x="399" y="564" type="line" smooth="yes"/>
      <point x="425" y="564"/>
      <point x="446" y="547"/>
      <point x="446" y="509" type="curve" smooth="yes"/>
      <point x="446" y="86" type="line" smooth="yes"/>
      <point x="446" y="44"/>
      <point x="434" y="28"/>
      <point x="389" y="28" type="curve" smooth="yes"/>
      <point x="94" y="28" type="line"/>
      <point x="94" y="369" type="line" smooth="yes"/>
      <point x="94" y="429"/>
      <point x="109" y="534"/>
      <point x="146" y="564" type="curve"/>
      <point x="146" y="571" type="line"/>
      <point x="116" y="571" type="line"/>
      <point x="116" y="563" type="line"/>
      <point x="77" y="518"/>
      <point x="67" y="424"/>
      <point x="67" y="369" type="curve" smooth="yes"/>
      <point x="67" y="34" type="line" smooth="yes"/>
      <point x="67" y="11"/>
      <point x="74" y="0"/>
    </contour>
  </outline>
</glyph>
<glyph name="mem-hb" format="2">
  <advance width="583"/>
  <unicode hex="05DE"/>
  <anchor x="303" y="0" name="bottom"/>
  <anchor x="120" y="0" name="bottomleft"/>
  <anchor x="299" y="310" name="center"/>
  <anchor x="316" y="536" name="top"/>
  <anchor x="-1" y="536" name="topleft"/>
  <outline>
    <contour>
      <point x="59" y="0" type="line"/>
      <point x="86" y="0" type="line"/>
      <point x="108" y="291" type="line" smooth="yes"/>
      <point x="118" y="423"/>
      <point x="200" y="564"/>
      <point x="316" y="564" type="curve" smooth="yes"/>
      <point x="403" y="564"/>
      <point x="489" y="487"/>
      <point x="489" y="251" type="curve" smooth="yes"/>
      <point x="489" y="171"/>
      <point x="479" y="89"/>
      <point x="472" y="47" type="curve" smooth="yes"/>
      <point x="469" y="30"/>
      <point x="469" y="28"/>
      <point x="457" y="28" type="curve" smooth="yes"/>
      <point x="247" y="28" type="line"/>
      <point x="244" y="0" type="line"/>
      <point x="495" y="0" type="line"/>
      <point x="513" y="118"/>
      <point x="516" y="221"/>
      <point x="516" y="267" type="curve" smooth="yes"/>
      <point x="516" y="494"/>
      <point x="441" y="598"/>
      <point x="283" y="598" type="curve" smooth="yes"/>
      <point x="266" y="598" type="line"/>
      <point x="184" y="526" type="line"/>
      <point x="182" y="527" type="line"/>
      <point x="182" y="571" type="line" smooth="yes"/>
      <point x="182" y="584"/>
      <point x="177" y="592"/>
      <point x="163" y="592" type="curve" smooth="yes"/>
      <point x="99" y="592" type="line" smooth="yes"/>
      <point x="84" y="592"/>
      <point x="77" y="603"/>
      <point x="77" y="627" type="curve" smooth="yes"/>
      <point x="77" y="647" type="line"/>
      <point x="64" y="647" type="line"/>
      <point x="60" y="625"/>
      <point x="57" y="597"/>
      <point x="57" y="585" type="curve" smooth="yes"/>
      <point x="57" y="571"/>
      <point x="61" y="564"/>
      <point x="76" y="564" type="curve" smooth="yes"/>
      <point x="132" y="564" type="line" smooth="yes"/>
      <point x="153" y="564"/>
      <point x="161" y="559"/>
      <point x="161" y="547" type="curve" smooth="yes"/>
      <point x="161" y="527"/>
      <point x="160" y="519"/>
      <point x="151" y="501" type="curve" smooth="yes"/>
      <point x="138" y="475"/>
      <point x="91" y="406"/>
      <point x="81" y="280" type="curve" smooth="yes"/>
    </contour>
  </outline>
</glyph>
<glyph name="finalnun-hb" format="2">
  <advance width="245"/>
  <unicode hex="05DF"/>
  <anchor x="1" y="0" name="bottomleft"/>
  <anchor x="66" y="310" name="center"/>
  <anchor x="92" y="536" name="top"/>
  <anchor x="-1" y="536" name="topleft"/>
  <outline>
    <contour>
      <point x="123" y="-240" type="line"/>
      <point x="130" y="-240" type="line"/>
      <point x="140" y="-236"/>
      <point x="147" y="-232"/>
      <point x="153" y="-226" type="curve"/>
      <point x="149" y="445" type="line" smooth="yes"/>
      <point x="149" y="498"/>
      <point x="155" y="539"/>
      <point x="158" y="564" type="curve"/>
      <point x="158" y="583" type="line" smooth="yes"/>
      <point x="158" y="589"/>
      <point x="154" y="592"/>
      <point x="148" y="592" type="curve" smooth="yes"/>
      <point x="69" y="592" type="line" smooth="yes"/>
      <point x="54" y="592"/>
      <point x="47" y="603"/>
      <point x="47" y="627" type="curve" smooth="yes"/>
      <point x="47" y="647" type="line"/>
      <point x="34" y="647" type="line"/>
      <point x="30" y="625"/>
      <point x="27" y="597"/>
      <point x="27" y="585" type="curve" smooth="yes"/>
      <point x="27" y="571"/>
      <point x="31" y="564"/>
      <point x="46" y="564" type="curve" smooth="yes"/>
      <point x="132" y="564" type="line"/>
      <point x="132" y="563" type="line"/>
      <point x="129" y="540"/>
      <point x="123" y="502"/>
      <point x="123" y="445" type="curve" smooth="yes"/>
    </contour>
  </outline>
</glyph>
<glyph name="nun-hb" format="2">
  <advance width="329"/>
  <unicode hex="05E0"/>
  <anchor x="145" y="0" name="bottom"/>
  <anchor x="-22" y="0" name="bottomleft"/>
  <anchor x="134" y="310" name="center"/>
  <anchor x="170" y="536" name="top"/>
  <anchor x="23" y="536" name="topleft"/>
  <outline>
    <contour>
      <point x="37" y="0" type="line"/>
      <point x="182" y="0" type="line" smooth="yes"/>
      <point x="226" y="0"/>
      <point x="252" y="22"/>
      <point x="252" y="92" type="curve" smooth="yes"/>
      <point x="252" y="523" type="line" smooth="yes"/>
      <point x="252" y="572"/>
      <point x="232" y="592"/>
      <point x="185" y="592" type="curve" smooth="yes"/>
      <point x="142" y="592" type="line" smooth="yes"/>
      <point x="127" y="592"/>
      <point x="120" y="603"/>
      <point x="120" y="627" type="curve" smooth="yes"/>
      <point x="120" y="647" type="line"/>
      <point x="107" y="647" type="line"/>
      <point x="103" y="625"/>
      <point x="100" y="597"/>
      <point x="100" y="585" type="curve" smooth="yes"/>
      <point x="100" y="571"/>
      <point x="104" y="564"/>
      <point x="119" y="564" type="curve" smooth="yes"/>
      <point x="183" y="564" type="line" smooth="yes"/>
      <point x="210" y="564"/>
      <point x="225" y="553"/>
      <point x="225" y="516" type="curve" smooth="yes"/>
      <point x="225" y="86" type="line" smooth="yes"/>
      <point x="225" y="44"/>
      <point x="213" y="28"/>
      <point x="168" y="28" type="curve" smooth="yes"/>
      <point x="40" y="28" type="line"/>
    </contour>
  </outline>
</glyph>
<glyph name="samekh-hb" format="2">
  <advance width="563"/>
  <unicode hex="05E1"/>
  <anchor x="295" y="0" name="bottom"/>
  <anchor x="124" y="0" name="bottomleft"/>
  <anchor x="282" y="310" name="center"/>
  <anchor x="282" y="536" name="top"/>
  <anchor x="39" y="536" name="topleft"/>
  <outline>
    <contour>
      <point x="287" y="-9" type="curve" smooth="yes"/>
      <point x="480" y="-9"/>
      <point x="496" y="205"/>
      <point x="496" y="293" type="curve" smooth="yes"/>
      <point x="496" y="369"/>
      <point x="484" y="449"/>
      <point x="469" y="495" type="curve" smooth="yes"/>
      <point x="444" y="570"/>
      <point x="401" y="592"/>
      <point x="321" y="592" type="curve" smooth="yes"/>
      <point x="119" y="592" type="line" smooth="yes"/>
      <point x="104" y="592"/>
      <point x="97" y="603"/>
      <point x="97" y="627" type="curve" smooth="yes"/>
      <point x="97" y="647" type="line"/>
      <point x="84" y="647" type="line"/>
      <point x="80" y="625"/>
      <point x="77" y="597"/>
      <point x="77" y="585" type="curve" smooth="yes"/>
      <point x="77" y="571"/>
      <point x="81" y="564"/>
      <point x="96" y="564" type="curve" smooth="yes"/>
      <point x="325" y="564" type="line" smooth="yes"/>
      <point x="429" y="564"/>
      <point x="469" y="491"/>
      <point x="469" y="297" type="curve" smooth="yes"/>
      <point x="469" y="96"/>
      <point x="391" y="19"/>
      <point x="291" y="19" type="curve" smooth="yes"/>
      <point x="149" y="19"/>
      <point x="94" y="142"/>
      <point x="94" y="287" type="curve" smooth="yes"/>
      <point x="94" y="395"/>
      <point x="126" y="505"/>
      <point x="145" y="564" type="curve"/>
      <point x="145" y="569" type="line"/>
      <point x="123" y="569" type="line"/>
      <point x="123" y="561" type="line"/>
      <point x="91" y="485"/>
      <point x="67" y="374"/>
      <point x="67" y="278" type="curve" smooth="yes"/>
      <point x="67" y="105"/>
      <point x="146" y="-9"/>
    </contour>
  </outline>
</glyph>
<glyph name="ayin-hb" format="2">
  <advance width="525"/>
  <unicode hex="05E2"/>
  <anchor x="267" y="0" name="bottom"/>
  <anchor x="95" y="0" name="bottomleft"/>
  <anchor x="276" y="369" name="center"/>
  <anchor x="260" y="536" name="top"/>
  <anchor x="40" y="536" name="topleft"/>
  <outline>
    <contour>
      <point x="42" y="-47" type="line"/>
      <point x="45" y="-47" type="line"/>
      <point x="281" y="106" type="line" smooth="yes"/>
      <point x="344" y="147"/>
      <point x="380" y="228"/>
      <point x="391" y="271" type="curve" smooth="yes"/>
      <point x="473" y="578" type="line" smooth="yes"/>
      <point x="475" y="587"/>
      <point x="468" y="590"/>
      <point x="460" y="591" type="curve" smooth="yes"/>
      <point x="380" y="600" type="line" smooth="yes"/>
      <point x="359" y="602"/>
      <point x="360" y="611"/>
      <point x="360" y="635" type="curve" smooth="yes"/>
      <point x="360" y="647" type="line"/>
      <point x="347" y="647" type="line"/>
      <point x="346" y="642"/>
      <point x="340" y="616"/>
      <point x="340" y="598" type="curve" smooth="yes"/>
      <point x="340" y="580"/>
      <point x="346" y="577"/>
      <point x="362" y="575" type="curve" smooth="yes"/>
      <point x="442" y="564" type="line"/>
      <point x="396" y="392" type="line" smooth="yes"/>
      <point x="351" y="225"/>
      <point x="344" y="181"/>
      <point x="233" y="109" type="curve" smooth="yes"/>
      <point x="42" y="-15" type="line"/>
    </contour>
    <contour>
      <point x="233" y="89" type="line"/>
      <point x="256" y="102" type="line"/>
      <point x="157" y="362" type="line" smooth="yes"/>
      <point x="119" y="461"/>
      <point x="138" y="548"/>
      <point x="142" y="579" type="curve"/>
      <point x="118" y="581" type="line"/>
      <point x="103" y="509"/>
      <point x="100" y="434"/>
      <point x="130" y="356" type="curve" smooth="yes"/>
    </contour>
    <contour>
      <point x="191" y="561" type="line"/>
      <point x="193" y="566"/>
      <point x="195" y="571"/>
      <point x="195" y="579" type="curve" smooth="yes"/>
      <point x="195" y="585"/>
      <point x="192" y="589"/>
      <point x="186" y="590" type="curve" smooth="yes"/>
      <point x="104" y="599" type="line" smooth="yes"/>
      <point x="85" y="601"/>
      <point x="82" y="605"/>
      <point x="82" y="629" type="curve" smooth="yes"/>
      <point x="82" y="647" type="line"/>
      <point x="69" y="647" type="line"/>
      <point x="65" y="628"/>
      <point x="62" y="613"/>
      <point x="62" y="596" type="curve" smooth="yes"/>
      <point x="62" y="582"/>
      <point x="66" y="576"/>
      <point x="81" y="574" type="curve" smooth="yes"/>
    </contour>
  </outline>
</glyph>
<glyph name="finalpe-hb" format="2">
  <advance width="518"/>
  <unicode hex="05E3"/>
  <anchor x="129" y="0" name="bottomleft"/>
  <anchor x="296" y="288" name="center"/>
  <anchor x="222" y="536" name="top"/>
  <anchor x="2" y="536" name="topleft"/>
  <outline>
    <contour>
      <point x="411" y="-240" type="line"/>
      <point x="418" y="-240" type="line"/>
      <point x="428" y="-236"/>
      <point x="435" y="-232"/>
      <point x="441" y="-226" type="curve"/>
      <point x="437" y="516" type="line" smooth="yes"/>
      <point x="437" y="565"/>
      <point x="412" y="592"/>
      <point x="365" y="592" type="curve" smooth="yes"/>
      <point x="79" y="592" type="line" smooth="yes"/>
      <point x="64" y="592"/>
      <point x="57" y="603"/>
      <point x="57" y="627" type="curve" smooth="yes"/>
      <point x="57" y="647" type="line"/>
      <point x="44" y="647" type="line"/>
      <point x="40" y="625"/>
      <point x="37" y="597"/>
      <point x="37" y="585" type="curve" smooth="yes"/>
      <point x="37" y="571"/>
      <point x="41" y="564"/>
      <point x="56" y="564" type="curve" smooth="yes"/>
      <point x="364" y="564" type="line" smooth="yes"/>
      <point x="390" y="564"/>
      <point x="411" y="547"/>
      <point x="411" y="509" type="curve" smooth="yes"/>
    </contour>
    <contour>
      <point x="172" y="273" type="curve"/>
      <point x="178" y="283"/>
      <point x="180" y="286"/>
      <point x="180" y="293" type="curve" smooth="yes"/>
      <point x="180" y="315"/>
      <point x="158" y="329"/>
      <point x="131" y="329" type="curve" smooth="yes"/>
      <point x="108" y="329"/>
      <point x="93" y="321"/>
      <point x="73" y="306" type="curve"/>
      <point x="73" y="313" type="line" smooth="yes"/>
      <point x="73" y="415"/>
      <point x="118" y="536"/>
      <point x="131" y="564" type="curve"/>
      <point x="131" y="573" type="line"/>
      <point x="108" y="573" type="line"/>
      <point x="108" y="563" type="line"/>
      <point x="66" y="486"/>
      <point x="45" y="361"/>
      <point x="45" y="286" type="curve" smooth="yes"/>
      <point x="45" y="278" type="line"/>
      <point x="69" y="278" type="line"/>
      <point x="87" y="294"/>
      <point x="102" y="301"/>
      <point x="123" y="301" type="curve" smooth="yes"/>
      <point x="142" y="301"/>
      <point x="155" y="296"/>
    </contour>
  </outline>
</glyph>
<glyph name="pe-hb" format="2">
  <advance width="542"/>
  <unicode hex="05E4"/>
  <anchor x="264" y="0" name="bottom"/>
  <anchor x="98" y="0" name="bottomleft"/>
  <anchor x="323" y="310" name="center"/>
  <anchor x="244" y="536" name="top"/>
  <anchor x="0" y="536" name="topleft"/>
  <outline>
    <contour>
      <point x="62" y="0" type="line"/>
      <point x="395" y="0" type="line" smooth="yes"/>
      <point x="439" y="0"/>
      <point x="465" y="22"/>
      <point x="465" y="92" type="curve" smooth="yes"/>
      <point x="465" y="516" type="line" smooth="yes"/>
      <point x="465" y="565"/>
      <point x="439" y="592"/>
      <point x="392" y="592" type="curve" smooth="yes"/>
      <point x="106" y="592" type="line" smooth="yes"/>
      <point x="91" y="592"/>
      <point x="84" y="603"/>
      <point x="84" y="627" type="curve" smooth="yes"/>
      <point x="84" y="647" type="line"/>
      <point x="71" y="647" type="line"/>
      <point x="67" y="625"/>
      <point x="64" y="597"/>
      <point x="64" y="585" type="curve" smooth="yes"/>
      <point x="64" y="571"/>
      <point x="68" y="564"/>
      <point x="83" y="564" type="curve" smooth="yes"/>
      <point x="391" y="564" type="line" smooth="yes"/>
      <point x="417" y="564"/>
      <point x="438" y="547"/>
      <point x="438" y="509" type="curve" smooth="yes"/>
      <point x="438" y="86" type="line" smooth="yes"/>
      <point x="438" y="44"/>
      <point x="426" y="28"/>
      <point x="381" y="28" type="curve" smooth="yes"/>
      <point x="65" y="28" type="line"/>
    </contour>
    <contour>
      <point x="199" y="283" type="curve"/>
      <point x="205" y="293"/>
      <point x="207" y="296"/>
      <point x="207" y="303" type="curve" smooth="yes"/>
      <point x="207" y="325"/>
      <point x="185" y="339"/>
      <point x="158" y="339" type="curve" smooth="yes"/>
      <point x="135" y="339"/>
      <point x="120" y="331"/>
      <point x="100" y="316" type="curve"/>
      <point x="100" y="323" type="line" smooth="yes"/>
      <point x="100" y="425"/>
      <point x="145" y="536"/>
      <point x="158" y="564" type="curve"/>
      <point x="158" y="573" type="line"/>
      <point x="135" y="573" type="line"/>
      <point x="135" y="563" type="line"/>
      <point x="93" y="487"/>
      <point x="72" y="367"/>
      <point x="72" y="293" type="curve" smooth="yes"/>
      <point x="72" y="288" type="line"/>
      <point x="96" y="288" type="line"/>
      <point x="114" y="304"/>
      <point x="129" y="311"/>
      <point x="150" y="311" type="curve" smooth="yes"/>
      <point x="169" y="311"/>
      <point x="182" y="306"/>
    </contour>
  </outline>
</glyph>
<glyph name="finaltsadi-hb" format="2">
  <advance width="443"/>
  <unicode hex="05E5"/>
  <anchor x="15" y="0" name="bottomleft"/>
  <anchor x="177" y="456" name="center"/>
  <anchor x="246" y="536" name="top"/>
  <anchor x="-1" y="536" name="topleft"/>
  <outline>
    <contour>
      <point x="91" y="-240" type="line"/>
      <point x="96" y="-240" type="line"/>
      <point x="106" y="-236"/>
      <point x="115" y="-232"/>
      <point x="121" y="-226" type="curve"/>
      <point x="119" y="29" type="line" smooth="yes"/>
      <point x="118" y="220"/>
      <point x="188" y="353"/>
      <point x="352" y="542" type="curve" smooth="yes"/>
      <point x="378" y="572" type="line"/>
      <point x="354" y="578" type="line"/>
      <point x="325" y="544" type="line" smooth="yes"/>
      <point x="221" y="422"/>
      <point x="155" y="338"/>
      <point x="118" y="202" type="curve"/>
      <point x="117" y="415" type="line"/>
      <point x="117" y="482"/>
      <point x="122" y="524"/>
      <point x="136" y="579" type="curve"/>
      <point x="110" y="579" type="line"/>
      <point x="110" y="575" type="line"/>
      <point x="97" y="530"/>
      <point x="91" y="478"/>
      <point x="91" y="408" type="curve" smooth="yes"/>
    </contour>
    <contour>
      <point x="191" y="561" type="line"/>
      <point x="193" y="566"/>
      <point x="195" y="571"/>
      <point x="195" y="579" type="curve" smooth="yes"/>
      <point x="195" y="585"/>
      <point x="192" y="589"/>
      <point x="186" y="590" type="curve" smooth="yes"/>
      <point x="104" y="599" type="line" smooth="yes"/>
      <point x="85" y="601"/>
      <point x="82" y="605"/>
      <point x="82" y="629" type="curve" smooth="yes"/>
      <point x="82" y="647" type="line"/>
      <point x="69" y="647" type="line"/>
      <point x="65" y="628"/>
      <point x="62" y="613"/>
      <point x="62" y="596" type="curve" smooth="yes"/>
      <point x="62" y="582"/>
      <point x="66" y="576"/>
      <point x="81" y="574" type="curve" smooth="yes"/>
    </contour>
    <contour>
      <point x="423" y="561" type="line"/>
      <point x="425" y="566"/>
      <point x="427" y="571"/>
      <point x="427" y="579" type="curve" smooth="yes"/>
      <point x="427" y="585"/>
      <point x="424" y="589"/>
      <point x="418" y="590" type="curve" smooth="yes"/>
      <point x="336" y="599" type="line" smooth="yes"/>
      <point x="317" y="601"/>
      <point x="314" y="605"/>
      <point x="314" y="629" type="curve" smooth="yes"/>
      <point x="314" y="647" type="line"/>
      <point x="301" y="647" type="line"/>
      <point x="297" y="628"/>
      <point x="294" y="613"/>
      <point x="294" y="596" type="curve" smooth="yes"/>
      <point x="294" y="582"/>
      <point x="298" y="576"/>
      <point x="313" y="574" type="curve" smooth="yes"/>
    </contour>
  </outline>
</glyph>
<glyph name="tsadi-hb" format="2">
  <advance width="504"/>
  <unicode hex="05E6"/>
  <anchor x="220" y="0" name="bottom"/>
  <anchor x="-17" y="0" name="bottomleft"/>
  <anchor x="133" y="253" name="center"/>
  <anchor x="261" y="536" name="top"/>
  <anchor x="-16" y="536" name="topleft"/>
  <outline>
    <contour>
      <point x="40" y="0" type="line"/>
      <point x="399" y="0" type="line"/>
      <point x="409" y="22"/>
      <point x="418" y="47"/>
      <point x="418" y="82" type="curve" smooth="yes"/>
      <point x="418" y="105"/>
      <point x="414" y="133"/>
      <point x="384" y="165" type="curve" smooth="yes"/>
      <point x="241" y="318" type="line" smooth="yes"/>
      <point x="191" y="371"/>
      <point x="182" y="381"/>
      <point x="182" y="440" type="curve" smooth="yes"/>
      <point x="182" y="571" type="line" smooth="yes"/>
      <point x="182" y="584"/>
      <point x="177" y="592"/>
      <point x="163" y="592" type="curve" smooth="yes"/>
      <point x="94" y="592" type="line" smooth="yes"/>
      <point x="79" y="592"/>
      <point x="72" y="603"/>
      <point x="72" y="627" type="curve" smooth="yes"/>
      <point x="72" y="647" type="line"/>
      <point x="59" y="647" type="line"/>
      <point x="55" y="625"/>
      <point x="52" y="597"/>
      <point x="52" y="585" type="curve" smooth="yes"/>
      <point x="52" y="571"/>
      <point x="56" y="564"/>
      <point x="71" y="564" type="curve" smooth="yes"/>
      <point x="143" y="564" type="line" smooth="yes"/>
      <point x="152" y="564"/>
      <point x="155" y="560"/>
      <point x="155" y="550" type="curve" smooth="yes"/>
      <point x="155" y="436" type="line" smooth="yes"/>
      <point x="155" y="389"/>
      <point x="162" y="365"/>
      <point x="201" y="324" type="curve" smooth="yes"/>
      <point x="357" y="158" type="line" smooth="yes"/>
      <point x="380" y="133"/>
      <point x="395" y="120"/>
      <point x="395" y="75" type="curve" smooth="yes"/>
      <point x="395" y="64"/>
      <point x="394" y="51"/>
      <point x="390" y="41" type="curve" smooth="yes"/>
      <point x="387" y="34"/>
      <point x="385" y="28"/>
      <point x="377" y="28" type="curve" smooth="yes"/>
      <point x="43" y="28" type="line"/>
    </contour>
    <contour>
      <point x="309" y="241" type="line"/>
      <point x="309" y="350"/>
      <point x="346" y="416"/>
      <point x="375" y="483" type="curve" smooth="yes"/>
      <point x="417" y="580" type="line"/>
      <point x="391" y="580" type="line"/>
      <point x="348" y="483" type="line" smooth="yes"/>
      <point x="323" y="426"/>
      <point x="285" y="345"/>
      <point x="285" y="264" type="curve"/>
    </contour>
    <contour>
      <point x="455" y="561" type="line"/>
      <point x="457" y="566"/>
      <point x="459" y="572"/>
      <point x="459" y="578" type="curve" smooth="yes"/>
      <point x="459" y="584"/>
      <point x="457" y="589"/>
      <point x="450" y="590" type="curve" smooth="yes"/>
      <point x="378" y="598" type="line" smooth="yes"/>
      <point x="359" y="600"/>
      <point x="356" y="604"/>
      <point x="356" y="629" type="curve" smooth="yes"/>
      <point x="356" y="647" type="line"/>
      <point x="343" y="647" type="line"/>
      <point x="339" y="628"/>
      <point x="336" y="611"/>
      <point x="336" y="597" type="curve" smooth="yes"/>
      <point x="336" y="580"/>
      <point x="340" y="575"/>
      <point x="355" y="573" type="curve" smooth="yes"/>
    </contour>
  </outline>
</glyph>
<glyph name="qof-hb" format="2">
  <advance width="550"/>
  <unicode hex="05E7"/>
  <anchor x="293" y="0" name="bottom"/>
  <anchor x="28" y="0" name="bottomleft"/>
  <anchor x="292" y="310" name="center"/>
  <anchor x="288" y="536" name="top"/>
  <anchor x="-1" y="536" name="topleft"/>
  <outline>
    <contour>
      <point x="292" y="-7" type="curve" smooth="yes"/>
      <point x="302" y="-7"/>
      <point x="307" y="-1"/>
      <point x="307" y="7" type="curve" smooth="yes"/>
      <point x="307" y="80" type="line" smooth="yes"/>
      <point x="307" y="93"/>
      <point x="309" y="100"/>
      <point x="321" y="111" type="curve" smooth="yes"/>
      <point x="463" y="248" type="line" smooth="yes"/>
      <point x="476" y="261"/>
      <point x="482" y="272"/>
      <point x="482" y="297" type="curve" smooth="yes"/>
      <point x="482" y="551" type="line" smooth="yes"/>
      <point x="482" y="569"/>
      <point x="479" y="592"/>
      <point x="447" y="592" type="curve" smooth="yes"/>
      <point x="129" y="592" type="line" smooth="yes"/>
      <point x="114" y="592"/>
      <point x="107" y="603"/>
      <point x="107" y="627" type="curve" smooth="yes"/>
      <point x="107" y="647" type="line"/>
      <point x="94" y="647" type="line"/>
      <point x="90" y="625"/>
      <point x="87" y="597"/>
      <point x="87" y="585" type="curve" smooth="yes"/>
      <point x="87" y="571"/>
      <point x="91" y="564"/>
      <point x="106" y="564" type="curve" smooth="yes"/>
      <point x="436" y="564" type="line" smooth="yes"/>
      <point x="448" y="564"/>
      <point x="455" y="557"/>
      <point x="455" y="545" type="curve" smooth="yes"/>
      <point x="455" y="291" type="line" smooth="yes"/>
      <point x="455" y="282"/>
      <point x="454" y="276"/>
      <point x="445" y="268" type="curve" smooth="yes"/>
      <point x="300" y="128" type="line" smooth="yes"/>
      <point x="284" y="112"/>
      <point x="277" y="95"/>
      <point x="277" y="80" type="curve" smooth="yes"/>
      <point x="277" y="7" type="line" smooth="yes"/>
      <point x="277" y="-1"/>
      <point x="283" y="-7"/>
    </contour>
    <contour>
      <point x="102" y="-240" type="line"/>
      <point x="107" y="-240" type="line"/>
      <point x="117" y="-236"/>
      <point x="126" y="-232"/>
      <point x="132" y="-226" type="curve"/>
      <point x="129" y="378" type="line"/>
      <point x="125" y="382" type="line"/>
      <point x="116" y="375" type="line" smooth="yes"/>
      <point x="106" y="368"/>
      <point x="102" y="352"/>
      <point x="102" y="314" type="curve" smooth="yes"/>
    </contour>
  </outline>
</glyph>
<glyph name="resh-hb" format="2">
  <advance width="454"/>
  <unicode hex="05E8"/>
  <anchor x="364" y="0" name="bottom"/>
  <anchor x="195" y="0" name="bottomleft"/>
  <anchor x="187" y="310" name="center"/>
  <anchor x="184" y="536" name="top"/>
  <anchor x="0" y="536" name="topleft"/>
  <outline>
    <contour>
      <point x="347" y="-6" type="line"/>
      <point x="352" y="-6" type="line"/>
      <point x="362" y="-2"/>
      <point x="371" y="2"/>
      <point x="377" y="8" type="curve"/>
      <point x="373" y="516" type="line" smooth="yes"/>
      <point x="373" y="565"/>
      <point x="348" y="592"/>
      <point x="301" y="592" type="curve" smooth="yes"/>
      <point x="66" y="592" type="line" smooth="yes"/>
      <point x="51" y="592"/>
      <point x="44" y="603"/>
      <point x="44" y="627" type="curve" smooth="yes"/>
      <point x="44" y="647" type="line"/>
      <point x="31" y="647" type="line"/>
      <point x="27" y="625"/>
      <point x="24" y="597"/>
      <point x="24" y="585" type="curve" smooth="yes"/>
      <point x="24" y="571"/>
      <point x="28" y="564"/>
      <point x="43" y="564" type="curve" smooth="yes"/>
      <point x="300" y="564" type="line" smooth="yes"/>
      <point x="326" y="564"/>
      <point x="347" y="547"/>
      <point x="347" y="509" type="curve" smooth="yes"/>
    </contour>
  </outline>
</glyph>
<glyph name="shin-hb" format="2">
  <advance width="687"/>
  <unicode hex="05E9"/>
  <anchor x="299" y="0" name="bottom"/>
  <anchor x="129" y="0" name="bottomleft"/>
  <anchor x="452" y="310" name="center"/>
  <anchor x="123" y="536" name="top"/>
  <anchor x="1" y="536" name="topleft"/>
  <anchor x="578" y="536" name="topright"/>
  <outline>
    <contour>
      <point x="114" y="0" type="curve"/>
      <point x="390" y="0" type="line" smooth="yes"/>
      <point x="536" y="0"/>
      <point x="575" y="204"/>
      <point x="586" y="271" type="curve" smooth="yes"/>
      <point x="635" y="579" type="line"/>
      <point x="635" y="585"/>
      <point x="632" y="589"/>
      <point x="626" y="590" type="curve"/>
      <point x="544" y="599" type="line" smooth="yes"/>
      <point x="525" y="601"/>
      <point x="522" y="605"/>
      <point x="522" y="629" type="curve" smooth="yes"/>
      <point x="522" y="647" type="line"/>
      <point x="509" y="647" type="line"/>
      <point x="505" y="628"/>
      <point x="502" y="613"/>
      <point x="502" y="596" type="curve" smooth="yes"/>
      <point x="502" y="582"/>
      <point x="506" y="576"/>
      <point x="521" y="574" type="curve" smooth="yes"/>
      <point x="606" y="564" type="line"/>
      <point x="555" y="262" type="line" smooth="yes"/>
      <point x="530" y="114"/>
      <point x="474" y="28"/>
      <point x="393" y="28" type="curve" smooth="yes"/>
      <point x="307" y="28" type="line"/>
      <point x="383" y="566" type="line"/>
      <point x="429" y="561" type="line"/>
      <point x="431" y="566"/>
      <point x="433" y="571"/>
      <point x="433" y="579" type="curve" smooth="yes"/>
      <point x="433" y="585"/>
      <point x="430" y="589"/>
      <point x="424" y="590" type="curve"/>
      <point x="342" y="599" type="line" smooth="yes"/>
      <point x="323" y="601"/>
      <point x="320" y="605"/>
      <point x="320" y="629" type="curve" smooth="yes"/>
      <point x="320" y="647" type="line"/>
      <point x="307" y="647" type="line"/>
      <point x="303" y="628"/>
      <point x="300" y="613"/>
      <point x="300" y="596" type="curve" smooth="yes"/>
      <point x="300" y="582"/>
      <point x="304" y="576"/>
      <point x="319" y="574" type="curve" smooth="yes"/>
      <point x="356" y="570" type="line"/>
      <point x="280" y="28" type="line"/>
      <point x="141" y="28" type="line"/>
      <point x="126" y="110"/>
      <point x="114" y="235"/>
      <point x="114" y="334" type="curve" smooth="yes"/>
      <point x="114" y="461"/>
      <point x="134" y="527"/>
      <point x="144" y="565" type="curve"/>
      <point x="181" y="561" type="line"/>
      <point x="183" y="566"/>
      <point x="185" y="571"/>
      <point x="185" y="579" type="curve" smooth="yes"/>
      <point x="185" y="585"/>
      <point x="182" y="589"/>
      <point x="176" y="590" type="curve"/>
      <point x="104" y="598" type="line" smooth="yes"/>
      <point x="85" y="600"/>
      <point x="82" y="604"/>
      <point x="82" y="629" type="curve" smooth="yes"/>
      <point x="82" y="647" type="line"/>
      <point x="69" y="647" type="line"/>
      <point x="65" y="628"/>
      <point x="62" y="612"/>
      <point x="62" y="595" type="curve" smooth="yes"/>
      <point x="62" y="581"/>
      <point x="66" y="575"/>
      <point x="81" y="573" type="curve" smooth="yes"/>
      <point x="118" y="569" type="line"/>
      <point x="106" y="519"/>
      <point x="87" y="435"/>
      <point x="87" y="318" type="curve" smooth="yes"/>
      <point x="87" y="212"/>
      <point x="103" y="71"/>
    </contour>
  </outline>
</glyph>
<glyph name="tav-hb" format="2">
  <advance width="558"/>
  <unicode hex="05EA"/>
  <anchor x="303" y="0" name="bottom"/>
  <anchor x="130" y="0" name="bottomleft"/>
  <anchor x="295" y="310" name="center"/>
  <anchor x="257" y="536" name="top"/>
  <anchor x="33" y="536" name="topleft"/>
  <outline>
    <contour>
      <point x="451" y="-6" type="line"/>
      <point x="456" y="-6" type="line"/>
      <point x="466" y="-2"/>
      <point x="475" y="2"/>
      <point x="481" y="8" type="curve"/>
      <point x="477" y="516" type="line" smooth="yes"/>
      <point x="477" y="565"/>
      <point x="452" y="592"/>
      <point x="405" y="592" type="curve" smooth="yes"/>
      <point x="108" y="592" type="line" smooth="yes"/>
      <point x="93" y="592"/>
      <point x="86" y="603"/>
      <point x="86" y="627" type="curve" smooth="yes"/>
      <point x="86" y="647" type="line"/>
      <point x="73" y="647" type="line"/>
      <point x="69" y="625"/>
      <point x="66" y="597"/>
      <point x="66" y="585" type="curve" smooth="yes"/>
      <point x="66" y="571"/>
      <point x="70" y="564"/>
      <point x="85" y="564" type="curve" smooth="yes"/>
      <point x="404" y="564" type="line" smooth="yes"/>
      <point x="430" y="564"/>
      <point x="451" y="547"/>
      <point x="451" y="509" type="curve" smooth="yes"/>
    </contour>
    <contour>
      <point x="37" y="0" type="line"/>
      <point x="149" y="0" type="line"/>
      <point x="153" y="13"/>
      <point x="155" y="22"/>
      <point x="155" y="37" type="curve" smooth="yes"/>
      <point x="155" y="92"/>
      <point x="146" y="211"/>
      <point x="138" y="306" type="curve" smooth="yes"/>
      <point x="132" y="379"/>
      <point x="140" y="466"/>
      <point x="161" y="564" type="curve"/>
      <point x="161" y="570" type="line"/>
      <point x="139" y="570" type="line"/>
      <point x="139" y="563" type="line"/>
      <point x="118" y="466"/>
      <point x="106" y="383"/>
      <point x="111" y="292" type="curve" smooth="yes"/>
      <point x="126" y="39" type="line" smooth="yes"/>
      <point x="126" y="33"/>
      <point x="125" y="28"/>
      <point x="120" y="28" type="curve" smooth="yes"/>
      <point x="40" y="28" type="line"/>
    </contour>
  </outline>
</glyph>
<glyph name="vavvav-hb" format="2">
  <advance width="544"/>
  <unicode hex="05F0"/>
  <note>
vavvav
</note>
  <anchor x="170" y="0" name="bottom"/>
  <anchor x="-2" y="0" name="bottomleft"/>
  <anchor x="272" y="0" name="caret_2"/>
  <anchor x="88" y="310" name="center"/>
  <anchor x="129" y="536" name="top"/>
  <anchor x="0" y="536" name="topleft"/>
  <outline>
    <contour>
      <point x="429" y="-6" type="line"/>
      <point x="434" y="-6" type="line"/>
      <point x="444" y="-2"/>
      <point x="451" y="2"/>
      <point x="457" y="8" type="curve"/>
      <point x="454" y="571" type="line" smooth="yes"/>
      <point x="454" y="584"/>
      <point x="449" y="592"/>
      <point x="435" y="592" type="curve" smooth="yes"/>
      <point x="366" y="592" type="line" smooth="yes"/>
      <point x="351" y="592"/>
      <point x="344" y="603"/>
      <point x="344" y="627" type="curve" smooth="yes"/>
      <point x="344" y="647" type="line"/>
      <point x="331" y="647" type="line"/>
      <point x="329" y="635"/>
      <point x="324" y="606"/>
      <point x="324" y="582" type="curve" smooth="yes"/>
      <point x="324" y="570"/>
      <point x="330" y="564"/>
      <point x="343" y="564" type="curve" smooth="yes"/>
      <point x="417" y="564" type="line" smooth="yes"/>
      <point x="426" y="564"/>
      <point x="429" y="560"/>
      <point x="429" y="550" type="curve" smooth="yes"/>
    </contour>
    <contour>
      <point x="157" y="-6" type="line"/>
      <point x="162" y="-6" type="line"/>
      <point x="172" y="-2"/>
      <point x="179" y="2"/>
      <point x="185" y="8" type="curve"/>
      <point x="182" y="571" type="line" smooth="yes"/>
      <point x="182" y="584"/>
      <point x="177" y="592"/>
      <point x="163" y="592" type="curve" smooth="yes"/>
      <point x="94" y="592" type="line" smooth="yes"/>
      <point x="79" y="592"/>
      <point x="72" y="603"/>
      <point x="72" y="627" type="curve" smooth="yes"/>
      <point x="72" y="647" type="line"/>
      <point x="59" y="647" type="line"/>
      <point x="57" y="635"/>
      <point x="52" y="606"/>
      <point x="52" y="582" type="curve" smooth="yes"/>
      <point x="52" y="570"/>
      <point x="58" y="564"/>
      <point x="71" y="564" type="curve" smooth="yes"/>
      <point x="145" y="564" type="line" smooth="yes"/>
      <point x="154" y="564"/>
      <point x="157" y="560"/>
      <point x="157" y="550" type="curve" smooth="yes"/>
    </contour>
  </outline>
</glyph>
<glyph name="geresh-hb" format="2">
  <advance width="164"/>
  <unicode hex="05F3"/>
  <outline>
    <contour>
      <point x="42" y="454" type="line"/>
      <point x="98" y="486"/>
      <point x="119" y="518"/>
      <point x="119" y="574" type="curve" smooth="yes"/>
      <point x="119" y="626"/>
      <point x="93" y="647"/>
      <point x="66" y="647" type="curve" smooth="yes"/>
      <point x="47" y="647"/>
      <point x="33" y="636"/>
      <point x="33" y="613" type="curve" smooth="yes"/>
      <point x="33" y="572"/>
      <point x="89" y="573"/>
      <point x="89" y="539" type="curve" smooth="yes"/>
      <point x="89" y="515"/>
      <point x="76" y="501"/>
      <point x="42" y="476" type="curve"/>
    </contour>
  </outline>
</glyph>
<glyph name="gershayim-hb" format="2">
  <advance width="310"/>
  <unicode hex="05F4"/>
  <outline>
    <contour>
      <point x="42" y="454" type="line"/>
      <point x="98" y="486"/>
      <point x="119" y="518"/>
      <point x="119" y="574" type="curve" smooth="yes"/>
      <point x="119" y="626"/>
      <point x="93" y="647"/>
      <point x="66" y="647" type="curve" smooth="yes"/>
      <point x="47" y="647"/>
      <point x="33" y="636"/>
      <point x="33" y="613" type="curve" smooth="yes"/>
      <point x="33" y="572"/>
      <point x="89" y="573"/>
      <point x="89" y="539" type="curve" smooth="yes"/>
      <point x="89" y="515"/>
      <point x="76" y="501"/>
      <point x="42" y="476" type="curve"/>
    </contour>
    <contour>
      <point x="188" y="454" type="line"/>
      <point x="244" y="486"/>
      <point x="265" y="518"/>
      <point x="265" y="574" type="curve" smooth="yes"/>
      <point x="265" y="626"/>
      <point x="239" y="647"/>
      <point x="212" y="647" type="curve" smooth="yes"/>
      <point x="193" y="647"/>
      <point x="179" y="636"/>
      <point x="179" y="613" type="curve" smooth="yes"/>
      <point x="179" y="572"/>
      <point x="235" y="573"/>
      <point x="235" y="539" type="curve" smooth="yes"/>
      <point x="235" y="515"/>
      <point x="222" y="501"/>
      <point x="188" y="476" type="curve"/>
    </contour>
  </outline>
</glyph>
<glyph name="sheqel" format="2">
  <advance width="734"/>
  <unicode hex="20AA"/>
  <note>
sheqel
</note>
  <outline>
    <contour>
      <point x="294" y="0" type="curve"/>
      <point x="453" y="0" type="line" smooth="yes"/>
      <point x="605" y="0"/>
      <point x="651" y="212"/>
      <point x="661" y="334" type="curve" smooth="yes"/>
      <point x="682" y="580" type="line" smooth="yes"/>
      <point x="683" y="594"/>
      <point x="676" y="597"/>
      <point x="666" y="598" type="curve" smooth="yes"/>
      <point x="591" y="607" type="line" smooth="yes"/>
      <point x="576" y="609"/>
      <point x="569" y="618"/>
      <point x="569" y="642" type="curve" smooth="yes"/>
      <point x="569" y="647" type="line"/>
      <point x="556" y="647" type="line"/>
      <point x="555" y="642"/>
      <point x="549" y="620"/>
      <point x="549" y="602" type="curve" smooth="yes"/>
      <point x="549" y="584"/>
      <point x="555" y="582"/>
      <point x="568" y="580" type="curve" smooth="yes"/>
      <point x="655" y="569" type="line"/>
      <point x="634" y="313" type="line" smooth="yes"/>
      <point x="619" y="135"/>
      <point x="538" y="28"/>
      <point x="456" y="28" type="curve" smooth="yes"/>
      <point x="321" y="28" type="line"/>
      <point x="281" y="213"/>
      <point x="282" y="294"/>
      <point x="303" y="417" type="curve"/>
      <point x="276" y="417" type="line"/>
      <point x="271" y="391"/>
      <point x="262" y="326"/>
      <point x="262" y="258" type="curve" smooth="yes"/>
      <point x="262" y="158"/>
      <point x="281" y="80"/>
    </contour>
    <contour>
      <point x="101" y="-6" type="line"/>
      <point x="106" y="-6" type="line"/>
      <point x="116" y="-2"/>
      <point x="125" y="2"/>
      <point x="131" y="8" type="curve"/>
      <point x="126" y="564" type="line"/>
      <point x="434" y="564" type="line"/>
      <point x="434" y="563" type="line"/>
      <point x="432" y="535"/>
      <point x="432" y="502"/>
      <point x="432" y="444" type="curve" smooth="yes"/>
      <point x="432" y="194" type="line"/>
      <point x="437" y="194" type="line"/>
      <point x="447" y="198"/>
      <point x="456" y="202"/>
      <point x="462" y="208" type="curve"/>
      <point x="457" y="564" type="line"/>
      <point x="472" y="567" type="line"/>
      <point x="472" y="583" type="line" smooth="yes"/>
      <point x="472" y="589"/>
      <point x="468" y="592"/>
      <point x="462" y="592" type="curve" smooth="yes"/>
      <point x="114" y="592" type="line" smooth="yes"/>
      <point x="99" y="592"/>
      <point x="92" y="603"/>
      <point x="92" y="627" type="curve" smooth="yes"/>
      <point x="92" y="647" type="line"/>
      <point x="79" y="647" type="line"/>
      <point x="75" y="625"/>
      <point x="72" y="597"/>
      <point x="72" y="585" type="curve" smooth="yes"/>
      <point x="72" y="571"/>
      <point x="76" y="564"/>
      <point x="91" y="564" type="curve" smooth="yes"/>
      <point x="104" y="564" type="line"/>
      <point x="104" y="563" type="line"/>
      <point x="103" y="535"/>
      <point x="101" y="502"/>
      <point x="101" y="444" type="curve" smooth="yes"/>
    </contour>
  </outline>
</glyph>
<glyph name="ayinaltone-hb" format="2">
  <advance width="533"/>
  <unicode hex="FB20"/>
  <note>
alternativeayin
</note>
  <anchor x="226" y="0" name="bottom"/>
  <anchor x="57" y="0" name="bottomleft"/>
  <anchor x="270" y="536" name="top"/>
  <anchor x="37" y="536" name="topleft"/>
  <outline>
    <contour>
      <point x="37" y="0" type="line"/>
      <point x="236" y="0" type="line" smooth="yes"/>
      <point x="385" y="0"/>
      <point x="421" y="204"/>
      <point x="432" y="271" type="curve" smooth="yes"/>
      <point x="481" y="585" type="line" smooth="yes"/>
      <point x="482" y="591"/>
      <point x="478" y="596"/>
      <point x="470" y="597" type="curve" smooth="yes"/>
      <point x="390" y="607" type="line" smooth="yes"/>
      <point x="375" y="609"/>
      <point x="368" y="618"/>
      <point x="368" y="642" type="curve" smooth="yes"/>
      <point x="368" y="647" type="line"/>
      <point x="355" y="647" type="line"/>
      <point x="354" y="642"/>
      <point x="348" y="620"/>
      <point x="348" y="602" type="curve" smooth="yes"/>
      <point x="348" y="584"/>
      <point x="354" y="582"/>
      <point x="367" y="580" type="curve" smooth="yes"/>
      <point x="451" y="569" type="line"/>
      <point x="403" y="262" type="line" smooth="yes"/>
      <point x="380" y="115"/>
      <point x="320" y="28"/>
      <point x="239" y="28" type="curve" smooth="yes"/>
      <point x="40" y="28" type="line"/>
    </contour>
    <contour>
      <point x="192" y="10" type="line"/>
      <point x="215" y="23" type="line"/>
      <point x="145" y="341" type="line" smooth="yes"/>
      <point x="122" y="445"/>
      <point x="136" y="548"/>
      <point x="140" y="579" type="curve"/>
      <point x="116" y="581" type="line"/>
      <point x="101" y="509"/>
      <point x="100" y="414"/>
      <point x="118" y="335" type="curve" smooth="yes"/>
    </contour>
    <contour>
      <point x="190" y="566" type="line"/>
      <point x="191" y="570"/>
      <point x="192" y="577"/>
      <point x="192" y="582" type="curve" smooth="yes"/>
      <point x="192" y="591"/>
      <point x="189" y="596"/>
      <point x="181" y="597" type="curve" smooth="yes"/>
      <point x="101" y="607" type="line" smooth="yes"/>
      <point x="86" y="609"/>
      <point x="79" y="618"/>
      <point x="79" y="642" type="curve" smooth="yes"/>
      <point x="79" y="647" type="line"/>
      <point x="66" y="647" type="line"/>
      <point x="65" y="642"/>
      <point x="59" y="620"/>
      <point x="59" y="602" type="curve" smooth="yes"/>
      <point x="59" y="584"/>
      <point x="65" y="582"/>
      <point x="78" y="580" type="curve" smooth="yes"/>
    </contour>
  </outline>
</glyph>
<glyph name="widealef-hb" format="2">
  <advance width="882"/>
  <unicode hex="FB21"/>
  <note>
alefwide
</note>
  <outline>
    <contour>
      <point x="800" y="-3" type="curve"/>
      <point x="810" y="-3" type="line"/>
      <point x="813" y="3"/>
      <point x="816" y="16"/>
      <point x="816" y="23" type="curve" smooth="yes"/>
      <point x="816" y="38"/>
      <point x="810" y="50"/>
      <point x="795" y="62" type="curve" smooth="yes"/>
      <point x="92" y="612" type="line" smooth="yes"/>
      <point x="83" y="619"/>
      <point x="82" y="627"/>
      <point x="82" y="638" type="curve" smooth="yes"/>
      <point x="82" y="647" type="line"/>
      <point x="69" y="647" type="line"/>
      <point x="66" y="638"/>
      <point x="62" y="629"/>
      <point x="62" y="621" type="curve" smooth="yes"/>
      <point x="62" y="611"/>
      <point x="64" y="598"/>
      <point x="78" y="587" type="curve" smooth="yes"/>
      <point x="787" y="28" type="line" smooth="yes"/>
      <point x="799" y="19"/>
      <point x="800" y="9"/>
    </contour>
    <contour>
      <point x="71" y="0" type="line"/>
      <point x="131" y="0" type="line"/>
      <point x="133" y="10"/>
      <point x="134" y="12"/>
      <point x="131" y="43" type="curve" smooth="yes"/>
      <point x="111" y="230" type="line" smooth="yes"/>
      <point x="106" y="279"/>
      <point x="115" y="330"/>
      <point x="131" y="379" type="curve" smooth="yes"/>
      <point x="183" y="536" type="line"/>
      <point x="156" y="536" type="line"/>
      <point x="104" y="379" type="line" smooth="yes"/>
      <point x="86" y="323"/>
      <point x="80" y="272"/>
      <point x="85" y="225" type="curve" smooth="yes"/>
      <point x="105" y="35" type="line" smooth="yes"/>
      <point x="106" y="23"/>
      <point x="104" y="20"/>
      <point x="96" y="20" type="curve" smooth="yes"/>
      <point x="71" y="20" type="line"/>
    </contour>
    <contour>
      <point x="682" y="131" type="line"/>
      <point x="682" y="280"/>
      <point x="698" y="335"/>
      <point x="721" y="402" type="curve" smooth="yes"/>
      <point x="783" y="580" type="line"/>
      <point x="757" y="580" type="line"/>
      <point x="694" y="402" type="line" smooth="yes"/>
      <point x="674" y="345"/>
      <point x="656" y="261"/>
      <point x="656" y="164" type="curve"/>
    </contour>
    <contour>
      <point x="825" y="561" type="line"/>
      <point x="827" y="566"/>
      <point x="829" y="571"/>
      <point x="829" y="579" type="curve" smooth="yes"/>
      <point x="829" y="585"/>
      <point x="826" y="589"/>
      <point x="820" y="590" type="curve" smooth="yes"/>
      <point x="748" y="598" type="line" smooth="yes"/>
      <point x="729" y="600"/>
      <point x="726" y="604"/>
      <point x="726" y="629" type="curve" smooth="yes"/>
      <point x="726" y="647" type="line"/>
      <point x="713" y="647" type="line"/>
      <point x="709" y="628"/>
      <point x="706" y="612"/>
      <point x="706" y="595" type="curve" smooth="yes"/>
      <point x="706" y="581"/>
      <point x="710" y="575"/>
      <point x="725" y="573" type="curve" smooth="yes"/>
    </contour>
  </outline>
</glyph>
<glyph name="widedalet-hb" format="2">
  <advance width="755"/>
  <unicode hex="FB22"/>
  <note>
daletwide
</note>
  <outline>
    <contour>
      <point x="620" y="-6" type="line"/>
      <point x="625" y="-6" type="line"/>
      <point x="635" y="-2"/>
      <point x="644" y="2"/>
      <point x="650" y="8" type="curve"/>
      <point x="645" y="564" type="line"/>
      <point x="693" y="564" type="line"/>
      <point x="693" y="583" type="line" smooth="yes"/>
      <point x="693" y="589"/>
      <point x="689" y="592"/>
      <point x="683" y="592" type="curve" smooth="yes"/>
      <point x="67" y="592" type="line" smooth="yes"/>
      <point x="52" y="592"/>
      <point x="45" y="603"/>
      <point x="45" y="627" type="curve" smooth="yes"/>
      <point x="45" y="647" type="line"/>
      <point x="32" y="647" type="line"/>
      <point x="30" y="635"/>
      <point x="25" y="606"/>
      <point x="25" y="582" type="curve" smooth="yes"/>
      <point x="25" y="570"/>
      <point x="31" y="564"/>
      <point x="44" y="564" type="curve" smooth="yes"/>
      <point x="622" y="564" type="line"/>
      <point x="622" y="563" type="line" smooth="yes"/>
      <point x="622" y="530"/>
      <point x="620" y="502"/>
      <point x="620" y="444" type="curve" smooth="yes"/>
    </contour>
  </outline>
</glyph>
<glyph name="widehe-hb" format="2">
  <advance width="870"/>
  <unicode hex="FB23"/>
  <note>
hewide
</note>
  <outline>
    <contour>
      <point x="743" y="-6" type="line"/>
      <point x="748" y="-6" type="line"/>
      <point x="758" y="-2"/>
      <point x="767" y="2"/>
      <point x="773" y="8" type="curve"/>
      <point x="767" y="564" type="line"/>
      <point x="783" y="567" type="line"/>
      <point x="783" y="583" type="line" smooth="yes"/>
      <point x="783" y="589"/>
      <point x="779" y="592"/>
      <point x="773" y="592" type="curve" smooth="yes"/>
      <point x="114" y="592" type="line" smooth="yes"/>
      <point x="99" y="592"/>
      <point x="92" y="603"/>
      <point x="92" y="627" type="curve" smooth="yes"/>
      <point x="92" y="647" type="line"/>
      <point x="79" y="647" type="line"/>
      <point x="75" y="625"/>
      <point x="72" y="597"/>
      <point x="72" y="585" type="curve" smooth="yes"/>
      <point x="72" y="571"/>
      <point x="76" y="564"/>
      <point x="91" y="564" type="curve" smooth="yes"/>
      <point x="744" y="564" type="line"/>
      <point x="744" y="563" type="line"/>
      <point x="743" y="541"/>
      <point x="743" y="502"/>
      <point x="743" y="444" type="curve" smooth="yes"/>
    </contour>
    <contour>
      <point x="87" y="-6" type="line"/>
      <point x="92" y="-6" type="line"/>
      <point x="102" y="-2"/>
      <point x="108" y="2"/>
      <point x="114" y="8" type="curve"/>
      <point x="114" y="378" type="line"/>
      <point x="110" y="382" type="line"/>
      <point x="101" y="375" type="line" smooth="yes"/>
      <point x="91" y="368"/>
      <point x="87" y="352"/>
      <point x="87" y="314" type="curve" smooth="yes"/>
    </contour>
  </outline>
</glyph>
<glyph name="widekaf-hb" format="2">
  <advance width="808"/>
  <unicode hex="FB24"/>
  <note>
kafwide
</note>
  <outline>
    <contour>
      <point x="60" y="0" type="line"/>
      <point x="661" y="0" type="line" smooth="yes"/>
      <point x="705" y="0"/>
      <point x="731" y="22"/>
      <point x="731" y="92" type="curve" smooth="yes"/>
      <point x="731" y="516" type="line" smooth="yes"/>
      <point x="731" y="565"/>
      <point x="705" y="592"/>
      <point x="658" y="592" type="curve" smooth="yes"/>
      <point x="106" y="592" type="line" smooth="yes"/>
      <point x="91" y="592"/>
      <point x="84" y="603"/>
      <point x="84" y="627" type="curve" smooth="yes"/>
      <point x="84" y="647" type="line"/>
      <point x="71" y="647" type="line"/>
      <point x="67" y="625"/>
      <point x="64" y="597"/>
      <point x="64" y="585" type="curve" smooth="yes"/>
      <point x="64" y="571"/>
      <point x="68" y="564"/>
      <point x="83" y="564" type="curve" smooth="yes"/>
      <point x="657" y="564" type="line" smooth="yes"/>
      <point x="683" y="564"/>
      <point x="704" y="547"/>
      <point x="704" y="509" type="curve" smooth="yes"/>
      <point x="704" y="86" type="line" smooth="yes"/>
      <point x="704" y="44"/>
      <point x="692" y="28"/>
      <point x="647" y="28" type="curve" smooth="yes"/>
      <point x="63" y="28" type="line"/>
    </contour>
  </outline>
</glyph>
<glyph name="widelamed-hb" format="2">
  <advance width="763"/>
  <unicode hex="FB25"/>
  <note>
lamedwide
</note>
  <outline>
    <contour>
      <point x="472" y="-7" type="curve" smooth="yes"/>
      <point x="482" y="-7"/>
      <point x="487" y="-1"/>
      <point x="487" y="7" type="curve" smooth="yes"/>
      <point x="487" y="80" type="line" smooth="yes"/>
      <point x="487" y="93"/>
      <point x="490" y="99"/>
      <point x="501" y="111" type="curve" smooth="yes"/>
      <point x="673" y="302" type="line" smooth="yes"/>
      <point x="685" y="316"/>
      <point x="692" y="329"/>
      <point x="692" y="341" type="curve" smooth="yes"/>
      <point x="693" y="551" type="line" smooth="yes"/>
      <point x="693" y="569"/>
      <point x="689" y="592"/>
      <point x="657" y="592" type="curve" smooth="yes"/>
      <point x="73" y="592" type="line" smooth="yes"/>
      <point x="59" y="592"/>
      <point x="53" y="598"/>
      <point x="57" y="613" type="curve" smooth="yes"/>
      <point x="107" y="798" type="line" smooth="yes"/>
      <point x="113" y="822"/>
      <point x="109" y="830"/>
      <point x="97" y="831" type="curve" smooth="yes"/>
      <point x="79" y="833" type="line" smooth="yes"/>
      <point x="61" y="835"/>
      <point x="57" y="850"/>
      <point x="57" y="862" type="curve" smooth="yes"/>
      <point x="57" y="873" type="line"/>
      <point x="44" y="873" type="line"/>
      <point x="42" y="865"/>
      <point x="37" y="841"/>
      <point x="37" y="826" type="curve" smooth="yes"/>
      <point x="37" y="813"/>
      <point x="41" y="809"/>
      <point x="52" y="807" type="curve" smooth="yes"/>
      <point x="72" y="804" type="line" smooth="yes"/>
      <point x="79" y="803"/>
      <point x="79" y="799"/>
      <point x="78" y="794" type="curve" smooth="yes"/>
      <point x="73" y="770"/>
      <point x="24" y="602"/>
      <point x="24" y="580" type="curve" smooth="yes"/>
      <point x="24" y="566"/>
      <point x="39" y="564"/>
      <point x="48" y="564" type="curve" smooth="yes"/>
      <point x="646" y="564" type="line" smooth="yes"/>
      <point x="658" y="564"/>
      <point x="665" y="557"/>
      <point x="665" y="545" type="curve" smooth="yes"/>
      <point x="665" y="345" type="line" smooth="yes"/>
      <point x="665" y="336"/>
      <point x="663" y="331"/>
      <point x="655" y="322" type="curve" smooth="yes"/>
      <point x="480" y="128" type="line" smooth="yes"/>
      <point x="465" y="111"/>
      <point x="457" y="95"/>
      <point x="457" y="80" type="curve" smooth="yes"/>
      <point x="457" y="7" type="line" smooth="yes"/>
      <point x="457" y="-1"/>
      <point x="463" y="-7"/>
    </contour>
  </outline>
</glyph>
<glyph name="finalwidemem-hb" format="2">
  <advance width="860"/>
  <unicode hex="FB26"/>
  <note>
finalmemwide
</note>
  <outline>
    <contour>
      <point x="103" y="0" type="curve" smooth="yes"/>
      <point x="703" y="0" type="line" smooth="yes"/>
      <point x="747" y="0"/>
      <point x="773" y="22"/>
      <point x="773" y="92" type="curve" smooth="yes"/>
      <point x="773" y="516" type="line" smooth="yes"/>
      <point x="773" y="565"/>
      <point x="747" y="592"/>
      <point x="700" y="592" type="curve" smooth="yes"/>
      <point x="109" y="592" type="line" smooth="yes"/>
      <point x="94" y="592"/>
      <point x="87" y="603"/>
      <point x="87" y="627" type="curve" smooth="yes"/>
      <point x="87" y="647" type="line"/>
      <point x="74" y="647" type="line"/>
      <point x="70" y="625"/>
      <point x="67" y="597"/>
      <point x="67" y="585" type="curve" smooth="yes"/>
      <point x="67" y="571"/>
      <point x="71" y="564"/>
      <point x="86" y="564" type="curve" smooth="yes"/>
      <point x="699" y="564" type="line" smooth="yes"/>
      <point x="725" y="564"/>
      <point x="746" y="547"/>
      <point x="746" y="509" type="curve" smooth="yes"/>
      <point x="746" y="86" type="line" smooth="yes"/>
      <point x="746" y="44"/>
      <point x="734" y="28"/>
      <point x="689" y="28" type="curve" smooth="yes"/>
      <point x="94" y="28" type="line"/>
      <point x="94" y="369" type="line" smooth="yes"/>
      <point x="94" y="429"/>
      <point x="109" y="534"/>
      <point x="146" y="564" type="curve"/>
      <point x="146" y="571" type="line"/>
      <point x="116" y="571" type="line"/>
      <point x="116" y="563" type="line"/>
      <point x="77" y="518"/>
      <point x="67" y="424"/>
      <point x="67" y="369" type="curve" smooth="yes"/>
      <point x="67" y="34" type="line" smooth="yes"/>
      <point x="67" y="11"/>
      <point x="74" y="0"/>
    </contour>
  </outline>
</glyph>
<glyph name="wideresh-hb" format="2">
  <advance width="754"/>
  <unicode hex="FB27"/>
  <note>
reshwide
</note>
  <outline>
    <contour>
      <point x="647" y="-6" type="line"/>
      <point x="652" y="-6" type="line"/>
      <point x="662" y="-2"/>
      <point x="671" y="2"/>
      <point x="677" y="8" type="curve"/>
      <point x="673" y="516" type="line" smooth="yes"/>
      <point x="673" y="565"/>
      <point x="648" y="592"/>
      <point x="601" y="592" type="curve" smooth="yes"/>
      <point x="66" y="592" type="line" smooth="yes"/>
      <point x="51" y="592"/>
      <point x="44" y="603"/>
      <point x="44" y="627" type="curve" smooth="yes"/>
      <point x="44" y="647" type="line"/>
      <point x="31" y="647" type="line"/>
      <point x="27" y="625"/>
      <point x="24" y="597"/>
      <point x="24" y="585" type="curve" smooth="yes"/>
      <point x="24" y="571"/>
      <point x="28" y="564"/>
      <point x="43" y="564" type="curve" smooth="yes"/>
      <point x="600" y="564" type="line" smooth="yes"/>
      <point x="626" y="564"/>
      <point x="647" y="547"/>
      <point x="647" y="509" type="curve" smooth="yes"/>
    </contour>
  </outline>
</glyph>
<glyph name="widetav-hb" format="2">
  <advance width="858"/>
  <unicode hex="FB28"/>
  <note>
tavwide
</note>
  <outline>
    <contour>
      <point x="751" y="-6" type="line"/>
      <point x="756" y="-6" type="line"/>
      <point x="766" y="-2"/>
      <point x="775" y="2"/>
      <point x="781" y="8" type="curve"/>
      <point x="777" y="516" type="line" smooth="yes"/>
      <point x="777" y="565"/>
      <point x="752" y="592"/>
      <point x="705" y="592" type="curve" smooth="yes"/>
      <point x="108" y="592" type="line" smooth="yes"/>
      <point x="93" y="592"/>
      <point x="86" y="603"/>
      <point x="86" y="627" type="curve" smooth="yes"/>
      <point x="86" y="647" type="line"/>
      <point x="73" y="647" type="line"/>
      <point x="69" y="625"/>
      <point x="66" y="597"/>
      <point x="66" y="585" type="curve" smooth="yes"/>
      <point x="66" y="571"/>
      <point x="70" y="564"/>
      <point x="85" y="564" type="curve" smooth="yes"/>
      <point x="704" y="564" type="line" smooth="yes"/>
      <point x="730" y="564"/>
      <point x="751" y="547"/>
      <point x="751" y="509" type="curve" smooth="yes"/>
    </contour>
    <contour>
      <point x="37" y="0" type="line"/>
      <point x="149" y="0" type="line"/>
      <point x="153" y="13"/>
      <point x="155" y="22"/>
      <point x="155" y="37" type="curve" smooth="yes"/>
      <point x="155" y="92"/>
      <point x="146" y="211"/>
      <point x="138" y="306" type="curve" smooth="yes"/>
      <point x="132" y="379"/>
      <point x="140" y="466"/>
      <point x="161" y="564" type="curve"/>
      <point x="161" y="570" type="line"/>
      <point x="139" y="570" type="line"/>
      <point x="139" y="563" type="line"/>
      <point x="118" y="466"/>
      <point x="106" y="383"/>
      <point x="111" y="292" type="curve" smooth="yes"/>
      <point x="126" y="39" type="line" smooth="yes"/>
      <point x="126" y="33"/>
      <point x="125" y="28"/>
      <point x="120" y="28" type="curve" smooth="yes"/>
      <point x="40" y="28" type="line"/>
    </contour>
  </outline>
</glyph>
<glyph name="alternativeplus-hb" format="2">
  <advance width="559"/>
  <unicode hex="FB29"/>
  <note>
alt_plussign
</note>
  <outline>
    <contour>
      <point x="65" y="343" type="line"/>
      <point x="494" y="343" type="line"/>
      <point x="494" y="371" type="line"/>
      <point x="293" y="371" type="line"/>
      <point x="293" y="572" type="line"/>
      <point x="265" y="572" type="line"/>
      <point x="265" y="371" type="line"/>
      <point x="65" y="371" type="line"/>
    </contour>
  </outline>
</glyph>
<glyph name="aleflamed-hb" format="2">
  <advance width="542"/>
  <unicode hex="FB4F"/>
  <note>
aleflamed
</note>
  <anchor x="225" y="0" name="caret_1"/>
  <outline>
    <contour>
      <point x="461" y="-3" type="curve"/>
      <point x="471" y="-3" type="line"/>
      <point x="474" y="3"/>
      <point x="476" y="11"/>
      <point x="476" y="18" type="curve" smooth="yes"/>
      <point x="476" y="31"/>
      <point x="466" y="48"/>
      <point x="452" y="67" type="curve" smooth="yes"/>
      <point x="61" y="602" type="line" smooth="yes"/>
      <point x="53" y="613"/>
      <point x="51" y="617"/>
      <point x="54" y="628" type="curve" smooth="yes"/>
      <point x="101" y="798" type="line" smooth="yes"/>
      <point x="108" y="822"/>
      <point x="103" y="830"/>
      <point x="91" y="831" type="curve" smooth="yes"/>
      <point x="73" y="833" type="line" smooth="yes"/>
      <point x="55" y="835"/>
      <point x="51" y="850"/>
      <point x="51" y="862" type="curve" smooth="yes"/>
      <point x="51" y="873" type="line"/>
      <point x="38" y="873" type="line"/>
      <point x="36" y="865"/>
      <point x="31" y="841"/>
      <point x="31" y="826" type="curve" smooth="yes"/>
      <point x="31" y="813"/>
      <point x="35" y="809"/>
      <point x="46" y="807" type="curve" smooth="yes"/>
      <point x="66" y="804" type="line" smooth="yes"/>
      <point x="73" y="803"/>
      <point x="73" y="799"/>
      <point x="72" y="794" type="curve" smooth="yes"/>
      <point x="31" y="650"/>
      <point x="24" y="630"/>
      <point x="24" y="616" type="curve" smooth="yes"/>
      <point x="24" y="607"/>
      <point x="29" y="601"/>
      <point x="39" y="587" type="curve" smooth="yes"/>
      <point x="448" y="28" type="line" smooth="yes"/>
      <point x="457" y="16"/>
      <point x="461" y="9"/>
    </contour>
    <contour>
      <point x="362" y="183" type="line"/>
      <point x="362" y="332"/>
      <point x="377" y="392"/>
      <point x="401" y="459" type="curve" smooth="yes"/>
      <point x="444" y="580" type="line"/>
      <point x="419" y="580" type="line"/>
      <point x="374" y="459" type="line" smooth="yes"/>
      <point x="353" y="402"/>
      <point x="336" y="316"/>
      <point x="336" y="219" type="curve"/>
    </contour>
    <contour>
      <point x="485" y="561" type="line"/>
      <point x="487" y="566"/>
      <point x="489" y="571"/>
      <point x="489" y="579" type="curve" smooth="yes"/>
      <point x="489" y="585"/>
      <point x="486" y="589"/>
      <point x="480" y="590" type="curve" smooth="yes"/>
      <point x="408" y="598" type="line" smooth="yes"/>
      <point x="389" y="600"/>
      <point x="386" y="604"/>
      <point x="386" y="629" type="curve" smooth="yes"/>
      <point x="386" y="647" type="line"/>
      <point x="373" y="647" type="line"/>
      <point x="369" y="628"/>
      <point x="366" y="612"/>
      <point x="366" y="595" type="curve" smooth="yes"/>
      <point x="366" y="581"/>
      <point x="370" y="575"/>
      <point x="385" y="573" type="curve" smooth="yes"/>
    </contour>
  </outline>
</glyph>
<glyph name="hatafpatah_zerowidthjoiner_siluqleft-hb" format="2">
  <anchor x="174" y="0" name="_bottom"/>
  <outline>
    <contour>
      <point x="50" y="-107" type="line"/>
      <point x="153" y="-107" type="line"/>
      <point x="156" y="-82" type="line"/>
      <point x="53" y="-82" type="line"/>
    </contour>
    <contour>
      <point x="191" y="-211" type="line"/>
      <point x="216" y="-208" type="line"/>
      <point x="216" y="-66" type="line"/>
      <point x="191" y="-69" type="line"/>
    </contour>
    <contour>
      <point x="272" y="-211" type="curve" smooth="yes"/>
      <point x="292" y="-211"/>
      <point x="295" y="-198"/>
      <point x="295" y="-183" type="curve" smooth="yes"/>
      <point x="295" y="-168"/>
      <point x="292" y="-155"/>
      <point x="272" y="-155" type="curve" smooth="yes"/>
      <point x="255" y="-155"/>
      <point x="251" y="-168"/>
      <point x="251" y="-183" type="curve" smooth="yes"/>
      <point x="251" y="-198"/>
      <point x="255" y="-211"/>
    </contour>
    <contour>
      <point x="272" y="-122" type="curve" smooth="yes"/>
      <point x="292" y="-122"/>
      <point x="295" y="-109"/>
      <point x="295" y="-94" type="curve" smooth="yes"/>
      <point x="295" y="-79"/>
      <point x="292" y="-66"/>
      <point x="272" y="-66" type="curve" smooth="yes"/>
      <point x="255" y="-66"/>
      <point x="251" y="-79"/>
      <point x="251" y="-94" type="curve" smooth="yes"/>
      <point x="251" y="-109"/>
      <point x="255" y="-122"/>
    </contour>
  </outline>
</glyph>
<glyph name="hatafsegol_zerowidthjoiner_siluqleft-hb" format="2">
  <anchor x="189" y="0" name="_bottom"/>
  <outline>
    <contour>
      <point x="224" y="-211" type="line"/>
      <point x="249" y="-208" type="line"/>
      <point x="249" y="-66" type="line"/>
      <point x="224" y="-69" type="line"/>
    </contour>
    <contour>
      <point x="118" y="-211" type="curve" smooth="yes"/>
      <point x="138" y="-211"/>
      <point x="140" y="-199"/>
      <point x="140" y="-183" type="curve" smooth="yes"/>
      <point x="140" y="-169"/>
      <point x="138" y="-155"/>
      <point x="118" y="-155" type="curve" smooth="yes"/>
      <point x="101" y="-155"/>
      <point x="97" y="-169"/>
      <point x="97" y="-183" type="curve" smooth="yes"/>
      <point x="97" y="-199"/>
      <point x="101" y="-211"/>
    </contour>
    <contour>
      <point x="71" y="-122" type="curve" smooth="yes"/>
      <point x="91" y="-122"/>
      <point x="94" y="-110"/>
      <point x="94" y="-94" type="curve" smooth="yes"/>
      <point x="94" y="-80"/>
      <point x="91" y="-66"/>
      <point x="71" y="-66" type="curve" smooth="yes"/>
      <point x="55" y="-66"/>
      <point x="50" y="-80"/>
      <point x="50" y="-94" type="curve" smooth="yes"/>
      <point x="50" y="-110"/>
      <point x="55" y="-122"/>
    </contour>
    <contour>
      <point x="166" y="-122" type="curve" smooth="yes"/>
      <point x="186" y="-122"/>
      <point x="189" y="-110"/>
      <point x="189" y="-94" type="curve" smooth="yes"/>
      <point x="189" y="-80"/>
      <point x="186" y="-66"/>
      <point x="166" y="-66" type="curve" smooth="yes"/>
      <point x="150" y="-66"/>
      <point x="145" y="-80"/>
      <point x="145" y="-94" type="curve" smooth="yes"/>
      <point x="145" y="-110"/>
      <point x="150" y="-122"/>
    </contour>
    <contour>
      <point x="305" y="-211" type="curve" smooth="yes"/>
      <point x="325" y="-211"/>
      <point x="328" y="-198"/>
      <point x="328" y="-183" type="curve" smooth="yes"/>
      <point x="328" y="-168"/>
      <point x="325" y="-155"/>
      <point x="305" y="-155" type="curve" smooth="yes"/>
      <point x="288" y="-155"/>
      <point x="284" y="-168"/>
      <point x="284" y="-183" type="curve" smooth="yes"/>
      <point x="284" y="-198"/>
      <point x="288" y="-211"/>
    </contour>
    <contour>
      <point x="305" y="-122" type="curve" smooth="yes"/>
      <point x="325" y="-122"/>
      <point x="328" y="-109"/>
      <point x="328" y="-94" type="curve" smooth="yes"/>
      <point x="328" y="-79"/>
      <point x="325" y="-66"/>
      <point x="305" y="-66" type="curve" smooth="yes"/>
      <point x="288" y="-66"/>
      <point x="284" y="-79"/>
      <point x="284" y="-94" type="curve" smooth="yes"/>
      <point x="284" y="-109"/>
      <point x="288" y="-122"/>
    </contour>
  </outline>
</glyph>
